<mxfile host="65bd71144e">
    <diagram id="UjBO-E2PqSetoig08NCO" name="第 1 页">
        <mxGraphModel dx="3156" dy="3594" grid="1" gridSize="10" guides="1" tooltips="1" connect="1" arrows="1" fold="1" page="1" pageScale="1" pageWidth="827" pageHeight="1169" math="0" shadow="0">
            <root>
                <mxCell id="0"/>
                <mxCell id="1" parent="0"/>
                <mxCell id="2" value="" style="ellipse;whiteSpace=wrap;html=1;aspect=fixed;hachureGap=4;strokeColor=#6c8ebf;fontFamily=Architects Daughter;fontSource=https%3A%2F%2Ffonts.googleapis.com%2Fcss%3Ffamily%3DArchitects%2BDaughter;fontSize=20;fillColor=#dae8fc;" vertex="1" parent="1">
                    <mxGeometry x="116.49" y="270" width="350" height="350" as="geometry"/>
                </mxCell>
                <mxCell id="3" value="" style="ellipse;whiteSpace=wrap;html=1;aspect=fixed;hachureGap=4;strokeColor=#82b366;fontFamily=Architects Daughter;fontSource=https%3A%2F%2Ffonts.googleapis.com%2Fcss%3Ffamily%3DArchitects%2BDaughter;fontSize=20;fillColor=#d5e8d4;" vertex="1" parent="1">
                    <mxGeometry x="168.99" y="322.5" width="245" height="245" as="geometry"/>
                </mxCell>
                <mxCell id="4" value="" style="ellipse;whiteSpace=wrap;html=1;aspect=fixed;hachureGap=4;strokeColor=#FF8000;fontFamily=Architects Daughter;fontSource=https%3A%2F%2Ffonts.googleapis.com%2Fcss%3Ffamily%3DArchitects%2BDaughter;fontSize=20;fontColor=#FFFFFF;fillColor=#FFFF33;" vertex="1" parent="1">
                    <mxGeometry x="231.49" y="385" width="120" height="120" as="geometry"/>
                </mxCell>
                <mxCell id="5" style="edgeStyle=none;curved=1;rounded=0;sketch=1;hachureGap=4;jiggle=2;curveFitting=1;orthogonalLoop=1;jettySize=auto;html=1;entryX=0;entryY=0.475;entryDx=0;entryDy=0;entryPerimeter=0;fontFamily=Architects Daughter;fontSource=https%3A%2F%2Ffonts.googleapis.com%2Fcss%3Ffamily%3DArchitects%2BDaughter;fontSize=16;fontColor=#000000;endArrow=open;startSize=14;endSize=14;sourcePerimeterSpacing=8;targetPerimeterSpacing=8;" edge="1" parent="1" source="13" target="2">
                    <mxGeometry relative="1" as="geometry"/>
                </mxCell>
                <mxCell id="9" value="Store" style="text;strokeColor=none;fillColor=none;html=1;align=center;verticalAlign=middle;whiteSpace=wrap;rounded=0;sketch=0;hachureGap=4;jiggle=2;curveFitting=1;fontFamily=Architects Daughter;fontSource=https%3A%2F%2Ffonts.googleapis.com%2Fcss%3Ffamily%3DArchitects%2BDaughter;fontSize=20;fontColor=#000000;" vertex="1" parent="1">
                    <mxGeometry x="259.9991623036649" y="440" width="65.49738219895288" height="30" as="geometry"/>
                </mxCell>
                <mxCell id="11" value="" style="group" vertex="1" connectable="0" parent="1">
                    <mxGeometry x="-60" y="402.5" width="128.25" height="85" as="geometry"/>
                </mxCell>
                <mxCell id="12" value="" style="edgeStyle=none;orthogonalLoop=1;jettySize=auto;html=1;rounded=0;hachureGap=4;fontFamily=Architects Daughter;fontSource=https%3A%2F%2Ffonts.googleapis.com%2Fcss%3Ffamily%3DArchitects%2BDaughter;fontSize=16;endArrow=none;startSize=14;endSize=14;sourcePerimeterSpacing=8;curved=1;shadow=0;" edge="1" parent="11" target="13">
                    <mxGeometry width="140" relative="1" as="geometry">
                        <mxPoint x="128.2460732984293" y="42.5" as="sourcePoint"/>
                        <mxPoint x="226.49214659685862" y="42.5" as="targetPoint"/>
                    </mxGeometry>
                </mxCell>
                <mxCell id="13" value="Request" style="shape=note;whiteSpace=wrap;html=1;backgroundOutline=1;fontColor=#000000;darkOpacity=0.05;fillColor=#FFF9B2;strokeColor=none;fillStyle=solid;direction=west;gradientDirection=north;gradientColor=#FFF2A1;shadow=1;size=20;pointerEvents=1;sketch=0;hachureGap=4;jiggle=2;curveFitting=1;fontFamily=Architects Daughter;fontSource=https%3A%2F%2Ffonts.googleapis.com%2Fcss%3Ffamily%3DArchitects%2BDaughter;fontSize=16;" vertex="1" parent="11">
                    <mxGeometry width="128.25" height="85" as="geometry"/>
                </mxCell>
                <mxCell id="14" value="Actor" style="shape=umlActor;verticalLabelPosition=bottom;verticalAlign=top;html=1;outlineConnect=0;sketch=1;hachureGap=4;jiggle=2;curveFitting=1;strokeColor=#FF8000;fontFamily=Architects Daughter;fontSource=https%3A%2F%2Ffonts.googleapis.com%2Fcss%3Ffamily%3DArchitects%2BDaughter;fontSize=20;fontColor=#FFFFFF;fillColor=#FF8000;" vertex="1" parent="11">
                    <mxGeometry x="0.0024607329842893932" y="12.5" width="32.74869109947644" height="60" as="geometry"/>
                </mxCell>
                <mxCell id="15" value="Store 是如何装载最终为 Request Handler 所用，是非常类似于 Serializer 和 Admit 的，也是在 installAPIResource 方法中" style="shape=note;whiteSpace=wrap;html=1;backgroundOutline=1;fontColor=#FF3333;darkOpacity=0.05;fillColor=#FFF9B2;strokeColor=none;fillStyle=solid;direction=west;gradientDirection=north;gradientColor=#FFF2A1;shadow=1;size=20;pointerEvents=1;" vertex="1" parent="1">
                    <mxGeometry x="-60.00000000000001" y="540" width="190" height="100" as="geometry"/>
                </mxCell>
                <mxCell id="20" value="&lt;div style=&quot;color: rgb(255, 255, 255); background-color: rgb(32, 40, 49); font-family: Consolas, &amp;quot;Courier New&amp;quot;, monospace; font-weight: normal; font-size: 20px; line-height: 27px;&quot;&gt;&lt;div&gt;&lt;span style=&quot;color: #55616c;font-style: italic;&quot;&gt;// REST implements a RESTStorage for Deployments.&lt;/span&gt;&lt;/div&gt;&lt;div&gt;&lt;span style=&quot;color: #ff92bb;font-weight: bold;&quot;&gt;type&lt;/span&gt;&lt;span style=&quot;color: #ffffff;&quot;&gt; &lt;/span&gt;&lt;span style=&quot;color: #f3c811;font-style: italic;&quot;&gt;REST&lt;/span&gt;&lt;span style=&quot;color: #ffffff;&quot;&gt; &lt;/span&gt;&lt;span style=&quot;color: #ff92bb;font-weight: bold;&quot;&gt;struct&lt;/span&gt;&lt;span style=&quot;color: #ffffff;&quot;&gt; {&lt;/span&gt;&lt;/div&gt;&lt;div&gt;&lt;span style=&quot;color: #ffffff;&quot;&gt;&amp;nbsp; &amp;nbsp; &lt;/span&gt;&lt;span style=&quot;color: #40bf77;&quot;&gt;*&lt;/span&gt;&lt;span style=&quot;color: #ffffff;&quot;&gt;genericregistry.Store&lt;/span&gt;&lt;/div&gt;&lt;div&gt;&lt;span style=&quot;color: #ffffff;&quot;&gt;}&lt;/span&gt;&lt;/div&gt;&lt;br&gt;&lt;div&gt;&lt;span style=&quot;color: #55616c;font-style: italic;&quot;&gt;// NewREST returns a RESTStorage object that will work against deployments.&lt;/span&gt;&lt;/div&gt;&lt;div&gt;&lt;span style=&quot;color: #ff92bb;font-weight: bold;&quot;&gt;func&lt;/span&gt;&lt;span style=&quot;color: #ffffff;&quot;&gt; &lt;/span&gt;&lt;span style=&quot;color: #ffc66d;&quot;&gt;NewREST&lt;/span&gt;&lt;span style=&quot;color: #ffffff;&quot;&gt;(optsGetter generic.RESTOptionsGetter) (&lt;/span&gt;&lt;span style=&quot;color: #40bf77;&quot;&gt;*&lt;/span&gt;&lt;span style=&quot;color: #ffffff;&quot;&gt;REST, &lt;/span&gt;&lt;span style=&quot;color: #40bf77;&quot;&gt;*&lt;/span&gt;&lt;span style=&quot;color: #ffffff;&quot;&gt;StatusREST, &lt;/span&gt;&lt;span style=&quot;color: #40bf77;&quot;&gt;*&lt;/span&gt;&lt;span style=&quot;color: #ffffff;&quot;&gt;RollbackREST, &lt;/span&gt;&lt;span style=&quot;color: #ff92bb;font-weight: bold;&quot;&gt;error&lt;/span&gt;&lt;span style=&quot;color: #ffffff;&quot;&gt;) {&lt;/span&gt;&lt;/div&gt;&lt;/div&gt;" style="text;whiteSpace=wrap;html=1;fontSize=20;fontColor=#FF3333;" vertex="1" parent="1">
                    <mxGeometry x="-23.51" y="670" width="580" height="250" as="geometry"/>
                </mxCell>
                <mxCell id="21" value="" style="group" vertex="1" connectable="0" parent="1">
                    <mxGeometry x="630" y="280" width="450" height="852.24" as="geometry"/>
                </mxCell>
                <mxCell id="16" value="在每一个 API Object 都会有一个 REST 结构体，负责最终处理针对本 Object 的 Request；而这个 REST 结构体大多数时候通过内嵌 &lt;font color=&quot;#ff3333&quot; style=&quot;font-size: 20px;&quot;&gt;genericregistry.Store&lt;/font&gt; 结构体来直接复用其属性和方法，特别是内建 API Object，所以这个 Store 结构体包含了大多数逻辑处理" style="text;strokeColor=none;fillColor=none;html=1;align=left;verticalAlign=middle;whiteSpace=wrap;rounded=0;fontColor=#000000;fontSize=20;" vertex="1" parent="21">
                    <mxGeometry x="10" width="330" height="220" as="geometry"/>
                </mxCell>
                <mxCell id="17" value="上述 REST 结构体一般定义在 API Object 相应的 storage/storage.go 文件中；例如 group &quot;apps&quot; 的 deployment 如下图所示；该文件还会有 NewREST 方法来构建并返回 REST 实例，包括子 Object 的" style="text;strokeColor=none;fillColor=none;html=1;align=left;verticalAlign=middle;whiteSpace=wrap;rounded=0;fontColor=#000000;fontSize=20;" vertex="1" parent="21">
                    <mxGeometry x="10" y="240" width="340" height="160" as="geometry"/>
                </mxCell>
                <mxCell id="18" value="" style="shape=image;verticalLabelPosition=bottom;labelBackgroundColor=default;verticalAlign=top;aspect=fixed;imageAspect=0;image=data:image/png,iVBORw0KGgoAAAANSUhEUgAAAeoAAAG2CAYAAACwIcW2AAAgAElEQVR4nOzdf1xUZf7//8e6jsFMAiKDISgiiKIIjZhgAhm2jpVs5r432hVrZTfxrbGWZVK8tdS11WqpvoqbtuHHFd+J+47yrVuOb8MWMMVfk0hRBBIuiIIpws5gjrnfP4YfM/wGQQZ43f+Cc65zXdc5w43nXNe55sxP7r73Z/+uvHyJnuA61BGD8RqGmh96pH0hhBCio5ycXW7p+I5m7sCuaLSzlKo7GKCwQ2H/Y4+0L4QQQti6AT3dASGEEEK0TIJaCCGEsGES1EIIIYQNk6AWQgghbJgEtRBCCGHDJKiFEEIIGyZBLYQQQtgwCWohhBDChg3s6Q70Ro+FuzM9oPWHxLySkkd55fXb1KNOsJ/BitVaRtec4b2Xd3Csp/sjhBCiWRLUnfBY+HAAviyuarJP7WiHq9Og292ljnOylxdfCCF6Aflf3UFLIr0Ac0i/vOObJvsfC3evD3KbVraPdS/s6/hxob9itdaT8/+7ni3Hu75bQgghrElQW3gs3J0Jnne2WmaCpwNgHjmvnj+2yX61o1239M1mqF25y8GenvkaFyGE6H9sP6hHjmFC1bd8WdmRYyYymTOcONexpiZ43skET4dW7y1b7msulHvFtLcQQohew8aDWsPi3z7ChBvfsnvjTv7RnrAeGcHzT4XjZRzDjT+m8UUnWl286XQnjjLr9NT3o0vZMt2Z3P/+Hy6FzWH6iMFg+Jr3Xko2L/QaFU7s4/cRMGwwAwcAN6q5cOYfbP9/GZy1rMdJw6+e1DJllDPKAcDNai4c/5RDd2r51QTITXmZjccBNMS9+iv8KzOIfa1hCnx0xHyevH8cdzkozBtuVHM243027BlHwtvhjKwt5x/9Gluiaehjs/2/yPkBwxiuKGbPc0l83OiU7/rl86wOHcLZ/X9gwyc1Hb9mQgjRD9h4UOvZ9lc3lv5uCo/FzYO2wroupPkn+3e2L6SnB7hwf6B5BfeoYfYArJ4/rlO93Z1R2qnjLN2l/Q9cCj5i+Rt66peqjZpNQlw4I6nmrP5zzhlA6aVhimY2zw1RsPzNTzEC2N9D3HO/xN/BRNVZPZ+V1IDKnUl3z+GXPzUBN1ptW6ldwnMPeUJFAYczyjFhz8gJ43AZNhgo4FjGQM66TWT6GDsu6I/zdTVwvRTLiYvG/ff/zUriNMOZqIWPdZat+fCwnyvUFJAtIS2EEC2y8aCGmsKPefsvtB3WliH97nvsbee0d8XVH5jgOdhqW+Pf2+uxcHe+LK7u1LFm9jhVf8ry/9abgxcAV/7jsamMpJzPNr7B+9/Vbdfx9aJ4nvC7h1+N/ZT3voEp82fj72Di3GdbWfdhcX0N79cHfetB/dBETwZSzmd/2sr7ddn5gT0OTgA1/N8HX8OjnkwfM5BLX37E+00WkzXtf67uDBc09zJyvBalTtdwXhOmMm4oVOkz+KwTV0oIIfqLXvHAk5rCj1n/58/5p3IMj8XN4z6nRgVG3svvn+x4SANd+llnteOt35++dC7DIqQBt/vQuCu4UXTMIqQBajisL8aIM3eNB9AQPMoeKr9mj0VIA/DdPj77tu1R6yVjDTCE0Q/5oLRop6qy/SPeJv0v03GmFAZ6+PAz+4bNU6b54EA5p3Rft7tuIYToj2x+RF3v3AHW/xni//Ne65H1yHv5/ZMzGTuo4yEN5hH1l8XVnR5FW3J1uuMWw7qGSyWNQtFjMEpg4JjZbHl7drNHuag1gDsOKrjxbTG5zZQx3Wy79c8+/pxgjxmMDl/Im/dc5mzO5/z94wxy272Qr5n+U8PHZ4q5390T/1n27PmwBriXaaPtofQ4e8raW7cQQvRPvSeooSGsY2vDetu3THhyJmMpIu3d7XzawZCuszujtNP3pRtzdbrj1ipoIVCrzn7OqZLm9xlLSgF3AK7fuIX7vd/p2PDS5/hr5/BIsA+jg2cTd899nNr1Bluy21lvM/03fqKn4D5PxvlpuevDj7gw3R8fexNnz3xqPfoWQgjRRO8KajCH9ZbasF46BqqKSNve+ZCGrp3+HjVM2XahjqiqwQg4/XiZ9z/IaLO40mUUd3GcC422Ow4aSFuLycyqydXtIFcHDkG/YsWvNUx65FdMyU6+hceMfs7/fT2DcRof7nezx6jxZGBNsSwiE0KIdugV96ibOHeA9Vs+5tPDn7P7FkMaGqa/u4LK7qddUk+9b/Scq4SBXlP41ajWCh7j7EVA7c8vg+2t9ijH/JLpYxRtNuXgZD39X3XyI3IrgDvssX6yuT0OHfwEWu7x76jCFf/7Z+M/SkHV17KITAgh2qP3jajrnDtG2i0GtKWuuk/d9b5mx8df4/PrcUxfuppxebl8/b0JUODi4clI54v87eUdHKOc9//vDJOiJ+L/63hWB5rLKYb6oPGz51JZDbi13tLMhSuZZldM7pelGAHFsHEEu4Hx2zMNoVpSjREYOXkJTwwsxX6YPfrN77c92v5Sx6mLE5kedDc3KCdLFpEJIUS79M4RdTc4dNp2H4ppzE5m7V8/5+wVuGvCPUwPv5fpoXczzgXOnfiiYfHY8R28/N7nnP2+oVzwCPh671/5v8ttt3OuqJwbd3oyJfxepoffy7RRCs5nf8TGTRYruY+/z/+cLMd4pyfTwu9lktMNmn41SXPK2aMv5sZABQMvFnBIFpEJIUS7/OTue3/2755q3OnOO7h2/QbXrv/YU12wsmnxRNS3uhgM+PHmv3nmnTM29TWX0xat5gm/G5z6f2vZou+ZPigfXMLrs4ZzTp5EJoToxyovd2xg2HunvrvB05vP9HQXusk4/N3s4UYx/+yhkAZXHtF4MlCeRCaEEB0iU9/9wOhHtQQ4wY2Sr3tuAdcELZOGIYvIhBCig2RE3Zc8soQ3A+25cKGYc9+bAHvuGjuOccPsoaaYPbtu/+eW/yNmCcprJsbe7YOD4Wv+miqLyIQQoiMkqPuS86VcCtQw0u8eRtfNlfxQzYUvM/j77n0c68hXhXYVZ0+mjQCqivn4vWQOy6y3EEJ0iCwmE0IIIW6jji4mk3vUQgghhA2ToBZCCCFsmAS1EEIIYcMGQsfny7vKoJ84YjBew1DzQ7vKuw7tWHkhhBCiqzk5u7RdqAvJiFoIIYSwYRLUQgghhA2ToBZCCCFsmAS1EEIIYcMkqIUQQggbJkEthBBC2DAJaiGEEMKGSVALIYQQNqwffHuWPfcE+/Jl9unb/hWPdeZMGUKo3+BWy/zlYAVfl97er5YKXbaJOA3o33ma9Ye7qFLNQjY+E8KQYh0rVqVS2hV1Kmez9u25+BpPsnFpElldUacN0SzaQPw0J4r+/grxu8p6ujut6k19FaKv6PNBrX5oMQt/MYJ/BaaSsPVIj4T1nOAhAFyqusGlapPVPpfBClwc+tDLoFQwqKvrdFah6Oo6bYhq4B093YV26019FaKv6EMJ0byKjzez02MFvwmOYh3c9rD+3QNqwBzSz28/12R/qN/g+jJ9wuEkYrtqdF6nJJX4p1K7uFLbkbXpGbI2dfQoP6Jf/A0Rg04Rs7obrs0DC0mc403J+ytItHg9O9dXIcSt6PNBDTV8tnUD0PVhPWfKEMZ52LVaZpy7ff3P8XPdmux3GdyXx4qi+zjiMUKN6ko3VT/MDXdHFeXdVL0Qov36QVBDd4X1OA87qyBujYvDwL41xS2EEOK26EfJYQ5rww/PsSQ8ild+MPLK9p5bYHbrlPhHLiBGG4C7Y+2o3FRF0aEdrN1xEoNlUecQYhY/SugYNaoBwM0qSrP+F12TOkOI37wQzRUdMWkKVi4Iw8tRATeNlB5PY82mdExB0Q3bgcqidJLXp5BdfyGjWL9Di6t+KzGJR2u3eRP5dAyzA91wqp2AMF0tZP8760jJNf/u+/ASFj1ofS75B7awcleeVb+iEiyneZu5BjdNVJ7PYd97SewtaOa8dhqIe3IWmuHK+n7s3fwmqV81/CWYF9lVsHf1UTyeijSXPdfQduO+mq6WceqTZBL/Xmh1NVXjZxM7/wEmDXdAMQAwVpD76f+jNHA52pHF7J2/mhSAeS+TOkttvahPGUTMsscIHa1GVXtqhoqTpC5LwrBsE3Eac/8ZrCV1hxaAov0xxO9so/91fwuW9Z7P4cN336q9XubXz6u2G5pFyaQuAqpz2Lj4LbKa6ys0W6+puoKiI7tZb/X32PD3seyID/HzGv6WDOdPkrohCd1lhBAW+lFQA9RwfPufSOI5loQv4BW29d6wnraQZY8FMOhyIVkHijGgxDc0BK+ZC1lpsliRqwwjfs0CNI4mKr85iq7YCIM9CZ4SzfyfmgBT07rvGMfKhWo4nYmuWonv1BC8gqOI/8ETpoag+uYoumwTqjEhhHpFELe8ktzV+6zfHNRTMvflF4jygfLcTHTnTTDYE02gGg9HcwnVIwms+g9vuJhHenYZJpR4aQJwHe7YygVQErH0VWInO0B1GfqMPMqvgcpzMsFjg4h+6WUcX11NSoHFIXeMY+Wzw1EVHEWXa0IxfCJh/t7MXbqEytjXG71xGULw4gcpP5REzN68+nPznfcyq2Z5guV1nxpC8OMvsHbgs6zcU/vX5BPFyue1eP3USOnpTHIrTCjUfgQ//Axjf2zrxQ0g7g9LCB1qpCg7nfxqUKj9mBToghrIPZGOrsIN//Ag3I156E6YX+uK3Lb7H/3cQrQe5j5lVdRdgwCin1nClaeTyCKPwwcU5HtMRjventLsTHKvAj8UU9RSd32iWL9Ci5edxd+YnQv+mgB8Zy4hUb2NZYmZ1n8fai0bFqm5kp2Jrprav6UgYlZEk7sipWs+LSBEH9HPghoah3WCcT0Jf7vQ053qBCNFnyWR+J7FaOWIiY0vh+EVOAPVrhQMQOiiKDSOJor2v0b8zoYRX7LzXNa+MRvf5oJ6mBrDzhdYu782dA5dZf0aLV7hYVTqLf/p5qB4+xmCPQPRso+0ZvsZyRQfBZSkE78hpaGvSgecan98NMgbBWXoVr1Oct27ph1KnJxbOf1pC4me7IDpnI41Cank1+9IITn8GRKfCmDWvLl8uDqtoc1hw2H/a8TVXwcl5198jejxPoQ+Aro9lg04MOjsW6zdm9ewySOKmBmeUJLOmhdTGtr8II/4NxaguS8a/z1bycWN6AUReCmq0L/7EuszGt4KptT2zYlWBIfhrwbD6VTiN2c2bHc2X7PKjDSSCSF+ahDu/zpH8o7mFpM103+A8jxStr1uMdug5PyLbxI93o/QcMjKyGHvjhyY5412/EDK9Skkt7o4sPZc7ZqeK3gTve4FIjW/IFaTSaK+YY/KYwj6d1+wKH+E628kEDF8InP9YaPVmw4h+rd++8ATo8kEDER5p0NPd6VzDm9l7XuNprgL8iitBhxd0AAQRqiPEi7nkLrTelqWy2kc+qqFuYTqAg7vt9hXkkHRZYAKTu22HBnl8MU/jaBwwN2/pY5WYDACw7yJGq9s2GysorK2iQqDEXDB9xd+qBoKUHm55bmOyHA/VFRx6n8sQ9rMkLGVzHOg8JnIo1bnlccBq+tgZO9XZZhQoHJQNqrFSFFOjtUWd+0kvBQmvvlHinWbxkyOnTWC2o27AZTh+I9UYCrIYGOG9TkYMraSXdLiaZmVXsUAqEYFobV8s3K5iso2Dm2t/wApb1uGtLnc3nPnASVOI9pdeQOPWQS3cK5QSMrHeRhwYGx4kPWukhONyhdy+GwFoELV2hs0IfqhfjiitmfCr3/P8hkjMJzaScK2xv/mew+nQC1zZ0zGV+2Aq4sTgwYpzPdCq+tKDMdpMJi+KkDfzPHXb7ZQ8ZUy0q02lGH4AcCIoVHImOtQoWpxljqd1ANT8fq5N9oXNxFaUUj2gb2k7s+pDx3dB+mEes7Gd+ZykkMryD+RTtoHOvSt3Kt0vFMB1wr4trkTw8h33xth5BBcg4Hsls4LuGTgOuCkDgCOWuy4SvkJ66JejipAgf+8ZFLnNdeuGo9pAG64AldKjjRzO8DY8nWvU5LGviMTiZkaQMzbycwtySHzk1Q+zChr4fZCc5r2HwClGxE/i2RakBtDnIfjegco7G7hkweejqho6VyBw2WULwrAa6gPcLJ+s6GioEn53KtGQN25NwxC9GH9LKgtQvqLnSxP6pkHoNw6i/uzpipKS65QpD9Dad395Ealr5t69izzP1hHzKEA5v76Ue6f6E3EvGeIePAkW15MIt0IFKSxcvFBNI/MJ+o+P3zDo4gPfZDs914iscko7Xa5zvVmm64i/+AJipoNWyPfFQOe5t9M1692sm0j6ZtXkP1RGFHzZxE8PoDIpwKY9YCONauaziA0r5n+199LBkNFGeUX8sgsvoRh2EQiA/vQZ/mF6GP6UVA3CumNvTWkAWUkMyc7YGp8r5Qw4qeGWBQ0YDKB6i4f3MlsskBnyB0Kml1M1h0u55C2KYc0HAhdlMCiaUFELwohvX5leBX6PUno94DT1IWsfSqE4McXEprxVrOPDL36LxOMdGeMBppOFygZNVQJpkK+y27m4E6qvGYAnLh+MYXk/a0UdDdhAlw9wqDJ2no3VO18uJfhfCbJGzJJVvoxd+kSosZriZm3l/idnfvLDf15GF52xkb3hkE1fx2RnaoRKDZP0w/xmIqKtKaj6mnm2YXyC02n4YUQ7dNP7lH3oZAGmOjCEOD698VWoyvVrBB8rR4pns43ZcCwIOaHW9+DVY1fwMzxt+NhKw6NFoVVkfXXM5QDgwa7AODkbL1OoPJICvqLgJ0K1xZq3Xu8AAMOTPqPKHwb7VOFLyRsJJiKTzfzEbTOyz1yjkoUjL0vukmbVrLzKDGCYkw4MT7Wu5wejiZ4WBsNKR1wsny5jHmkHTZPFascPa3LOroQ3M7+j3JSYp4Sb7TgK7Dpg3hqO9L2NHTJfvTnQeETTlx44/v83kQ/5IeKCvKP5DV7uBCibf1gRN3HQhrMQRAThH9gFInLfMwf/Rk+kTAfuFKN1YKslI9PErYoCM1Tr5E4+WTDx4QCVZSXGMGjuzv7IPFvhqH6Ngd9sRFQ4B4YgjtGcrPNd4xnP/cWEfaF6PXFGMB8Lh5g+OpEy0F7MImUgFeJ1WhZuzkAvd7y41kOKK7msOX1lj4y1kn6baTqxxCriWDtZr/6NrFzwctnFK7ndxH79lEgneRDYWx42BPtS2/hdeIERdW1ffO8QslF8GotrDUxbFg4CsPp0+RWmAAlvlMDUFFB9oG6wMuh5ApoRgYQtTSaCUZPnKrXkbir5WoPFZYR6eVGxB8TUJ1o+GiZ6loV0GhR5XfmkbJXaAKximJUw5Uc27C1mdmNMpLf1eH7khbNU2+yJfwk2RYfz3IfbKJo/1Y2NruWQAjRHn0+qNWRi80hfWY3L/WFkAYgncStw80PHtGE4Q4YKvLY++ZRvJ5eYD0KPZzEsmvRxM8Lwbe2rOlqGad2b+TY2GeJ6/agLib//FQixoSgHWveYrpaTPr2FLYcNL8a3+WXYQr1JnSmt7nAtSqKMlJIfje9laA1kp74EobHlhA13QdNeERt5VWU6veR+k6axUNYuoqR9MRVXH8yjqh7vdGE145ETSYqL+aRntUwvVu6azVrqs0PRvGdGoEvYKgoJP2dN7k+d1OTdQRWigso+t4H/8AwtAOAmyYMF/JIey+J1PoV20ZStu1j7DOz8Z0cgftNI7n/03rvS7cnkzI0hkcDa6/1zSpKs1JYaQxjy6xGQX14KymBCUQHexMx0xvOZ3KgpYoLUol/tYLYJ35OmMXrbKgoJD1tF1sOFrZ0pBCiHX5y970/+3fl5Us90rjrUEcMxmsYan7olvJm9kyfcQ/6TzPo7NKelvzuAXW7HyHalp74mkvRE5TE/HETWg+LJ5MJIXoVJ2eXWzq+o5nb50fUUMNnn2Z0S81/OVjRLfWKPkw5yzztXVHGFz3dFyFEr9BPFpMJYQuURCwKx1cB5QVHkYdvCSHaox+MqIW4/UKf3sD8EUZKigvNT4uzc8HX3w8vZwWmiqOkbpaPKwkh2keCWohuUPTPcxjGBTA22BP/2nkrU3UF+Rk6Unemy2haCNFuEtRCdIPSPUks29N2OSGEaIvcoxZCCCFsmAS1EEIIYcMkqIUQQggbJkEthBBC2DAJaiGEEMKGSVALIYQQNkyCWgghhLBhEtRCCCGEDZOgFkIIIWyYPJlMCCGE6IBb+WroznxFpoyohRBCCBsmQS2EEELYsH4w9W3PPcG+fJl9GmMP9WDOlCGE+g1utcxfDlbwdWnNbepRC5SzWfv2XHyNJ9m4NImsnu1NN1Ay97/eJGpMDdlbnyHxcE/35zaY9zKps9To33ma9f3hfIXog/p8UKsfWszCX4zgX4GpJGw90iNhPSd4CACXqm5wqdpktc9lsAIXBxt5GZxVKHq6D93KEeWgnu6DEEJ0jI0kRPep+HgzOz1W8JvgKNbBbQ/r3z2gBswh/fz2c032h/oNri/T40pSiX8qtad70Y3KSFkVS8qtVPHAQhLneFPy/or+MSIXQvS4Ph/UUMNnWzcAXR/Wc6YMYZyHXatlxrnb1/8cP9etyX6XwX17DNvnDHPD3VFFeU/3QwjRb/SDoIbuCutxHnZWQdwaF4eBtjPFLYQQotfoR8lhDmvDD8+xJDyKV34w8sr2nltgduuU+EcuIEYbgLtj7ajcVEXRoR2s3XESQ12x+sVEL3Bo9LNEh3rjqgRumqg8n8O+95LYW1BXOIT4zQvRXNERlVA3Be5N5NMxzA50w6l28sB0tZD976wjJbehN74PL2HRgw19MV0t49QnyST+vbBJ3Ss/d2PRzwNwV0LJuTI8RrpRejCBZdvLrE/RI5rEP0bgWrCP2NVp5nPy0bLstw8yabgDigHmcy499QnvbNKR3/ic391G+QPz0Xo5QHUOGxe/Bcs2EaepYO/81bVT4A39itlpIO7JWWiGK+vPc+/mN0n9yghEsX6HFq/aJjSLkkldRH29WQDKIGKWPUboGDWqAcBNI+XfHiUlMYXs+j80cz2u+m1sqYgg5gFPnAYYzYu9RtW9Vi+R5fMs8+/zxElhrqf0eBprNqVT2dHXXwjR6/Wzj2fVcHz7n0jKuIRr+AJeeTIQZU93qbOmLWTZY0G4/niOrAPp6A4cpcjkgNfMhax8vOkUuyJ4OXHhaipPp6M7kE7WtzWoPIKIfuYZIlq8CErmvvwC0cEuXC/IRHcgHd2RQq4o1Hg4NpTynfcyqx637kvJADeCH3+BtY80qvzOScTNVJD19tNEzY/huXUnyTeB+8RZuDdq3V07EXeMfHO4LqSjWP9SFMHDoCi79jxKBuIeHMWql2ejanz8nAX4/3MXsfNjiKoL05bcMY6Vz0bifvkkugPppOdWgKM3c5cuQQtAHocPpKP7qgowUVrbvu6zkxQBKMOIf20J2rEqKk+br1X6VwaGjI1g2R8WomncnsdsYv3PsePZGKLmW6/Idn1oDXHBkHuo9nW9psQ9OJpVT1q8rh18/YUQvVc/GlHXqQ1rnmNJ+AISjOtJ+NuFnu5UJxgp+iyJxPcsRk9HTGx8OQyvwBmodqVYjKqU+PtcZcvS1aTXj+xS0P12A2unB/Dob/xI35zXTBuRTPFRQEk68Rss6lM64FT3s0cUMTM8oSSdNS+mNIxqP8gj/o0FaO6Lxn/PVuoH3853UJT4Omlf1Z1GGvpiLb4+45jrDxvrC/oxd4IaqnM4dBDAjegFEXhRhu7VBJLrZwHS+PL514gNDCPGf5/F8UqGXN1H7LtH2ze6HDYc9r9G3M66GQAl5198jejxPoQ+Aro9OezdkQPzvNGOH0i5PoVki3ANXRSFxtGI/t0XWJ/RME9zaP46Vs0MYu4joN/TUF7lVEXa09vIajKlo8TdMYctz7/V8FrVvq7ugZH4U3ctO/L6CyF6s342om5gNJmAgSjvdOjprnTO4a2sfa/RFGdBHqXVgKNLkxFc+clUi5A2y38vk3wTuI4IajIaNavAYASGeRM13mJkbKyisrYud+0kvBQmvvmHRUgDGDM5dtYIajfuttxe/R1f6K1bSTtcgAE1/tMDGjZqIvBXQ+VX6eaRsMcsgkcqMH2bYRHSAEbSj5mPdw9sdM5n97c/rKrzOFAf0uZ6935VhgkFKoe25l203O+nhIsn2ZFhfZHzP8ijHAXu3iHWh1wsZl8L911Ks7dav1YFR8mvAOyUuNZt6+DrL4TovfrhiNqeCb/+PctnjMBwaicJ2/LbPsRGOQVqmTtjMr5qB1xdnBg0SGG+b1vduKSR0m/LmqnhEoZr1P9jbzo1nE7qgal4/dwb7YubCK0oJPvAXlL359TfK/VyVAEK/OclkzqvuV6q8ZgG1I0+r14iu3GRg5nkz/VDMyYMDTnogdD7/XCiDN1HOeYyno6oAMX4KFJ3RDV7PVyHhQBH68+5vLgDKxCulJHeeNslA9cBJ3WARb3NcUJlB9iFkbgjrPkiQz2t6jB8X9zCmwgj5Wcb9zuPKzWA2pHhlq22+/UXQvRm/SyoLUL6i50sT+qZB6DcOiURS18ldrKDeTFVyRWK9GcorVbiOzWkfsGTlR9bqe6a0WKRkrX8D9YRcyiAub9+lPsnehMx7xkiHjzJlheTLEZ9VeQfPEHRzeZqMPJdscWvN03NBNRRdF89jiZ4DPdrQK+P4P6xSkwF6aSWWJes/Cad7OImFQBgKG60o7Vz7gamkpOkf3W1+Z0VjW4t3DQ1X65dOvH6CyF6rX4U1I1CemNvDWlAGcnMyQ6YGt8XJoz4qSHNHYDTKCUcbnTGHn64DwbTxfPkNnNUvcs5pG3KIQ0HQhclsGhaENGLQkhPPErlNQPgxPWLKSTv7/wp6T86TXlwGP73h8CwIMYqLRaRAVw1YgCG/FhB8g5d5xvqFgZMJlAojOh2pFDa3c11+PUXQvRm/eQedR8KaYCJLgwBrn9fbHVfWDUrBN8WHinupYnC3+pWq5LI+UG4YqLoiyaTvrUccD16+AUAACAASURBVHK2/L2KrL+eoRwYNNj8VW25R85RiYKx90Xj28nTAaBkP/rzoPIJIS7YB0V1Qe0islq5Rym6DIox4cT43EpDXUGJ0wjL39PJLTbBsCDmh9+GzxF04vUXQvRe/WBE3cdCGiA7j5KYIPwDo0hc5kNuhQnF8ImE+cCVappZGGai0i6ElW+MJOtIIQYUuAeG4D9Mgemcjh17WroiDxL/Zhiqb3PQFxuh9jh3jORm14a7fhup+jHEaiJYu9kPvT6P8muAnQtePqNwPb+L2Ldbu79bp4zUY4VEzPEj2E5B5an0RvfMc9jyQQ5jnwpAu3IT/qdPklthAhS4evrgpT7PjtvxRSLfXcUAeIUmEKsoRjVcybENW0ndmY7mJS2ap95kS/hJsmvvj6uG++E7+jrZsatv7dGlljr8+gsherM+H9TqyMXmkD6zm5f6QkgDkE7i1uGsXBCGlyYMd8BQkcfeN4/i9fSChpXB9UwU7U6iaOpv0D4QYX4Yh6mK0uw06weFNFFM/vmpRIwJQTu2tqarxaRvT2HLwboraSQ9cRXXn4wj6l5vNOG1n+E1mai8mEd6Vk67z8rwSR5FD3vjqygj+6Omxxky3mKFKZrnfhmCb+15c9OEqfoSuRlH0Tc5ohsc3kpKYALRwd5EzPSG85kcAChIZe0bBmLnP8Aky+tVXUHRiU851qWd6OjrL4TozX5y970/+3fl5Us90rjrUEcMxmsYan7olvJm9kyfcQ/6TzNoYZlPp/3uAXW7HyHalm77mkv5mkMhhLAZTs4udDRz+/yIGmr47NOMbqn5LwcruqVeIYQQok4/WUwmhBBC9E4S1EIIIYQNk6AWQgghbFg/uEfdz+1cTdTOnu6EEEKIzpIRtRBCCGHDJKiFEEIIGyZBLYQQQtgwCWohhBDChklQCyGEEDZMgloIIYSwYRLUQgghhA2ToBZCCCFsmAS1EEIIYcMkqIUQQggbJkEthBBC2DAJaiGEEMKGyZdy3AZPaMcw8x73Vss8vzmbC5drblOPhBBC9BYS1LfBE1ofAE4XfN9k3zBnJXc529/uLgkhhOglJKi72fLHJwLmkH5u87Em+5/QjqkPciGEEKIxCepb8IR2DIHeQ1otE+gzFDCPnP+0eEqT/cOcld3SNyGEEH1D3wvq0RO4u/JLvrjckWMmcy8n+Pxsx5oK9B5CoM/QVu8tW+5rLpRl2lsIIURr+lhQT2X50nnc/eOXbP/DnznQnrAeHckry7SMMUzAtGI7xzvRavQfPuvEUWadn/pW4h+5gBhtAO6OCvMmUxVFh3awdsdJDHXF5r1M6iw1+nde4NDoZ4kO9cZVCdw0UXk+h33vJbG3oK5wCPGbF6K5oiNqWyXLfvsgk4Y7oBgAGCvIz9rNesu6lUHELHuM0NFqVLVdMFScJHVZErpOXQ0hhBCN9bGgPkLSn0eQ8Ew4T/7Xf0JbYV0X0hTx0Zb2hfTMe9zR3uMBgLf7YAD+tDi4U739q+7bTh0HwLSFLHssgEGXC8k6UIwBJb6hIXjNXMhK0yvE7yqzKq4IXk6c3xCK9Onoq0HlOZngsUFEP/MMhhfeIt1oUXiAG/HPaPGtziHz4CVMdi74Tw7Ad+ZCVt58jfidhUAAcX9YQuhQI0XZ6eRXg0Ltx6RAF9SdPyshhBCN9LGgBuPXu1n3Fm2HtWVIJ/6Jv7Vz2vvi5RoCfZyttjX+vb2eYAynCzsyR2/JSNFnSSS+ZzHCPWJi48theAXOQLUrpWE7Svx9rrJl6WqLQE5B99sNrJ0ewKO/8SN9c15D1R5+uB5YR8yOwoZtO7WsfDMK/xmPM3fnOtKCw/BXg+F0KvGbMxvKOTvg1MkzEkII0VSffOCJ8evdJLz2Kd8pJ/Dkf/0nMxvn6OgZvPR0x0Ma4MKVrvus87BbuT99eCtrLUMaoCCP0mrA0QVNo+LlJ1OtR81A/nuZ5JvAdUQQKssd1wo4ZBnSAEYdH56uAIUbvuFA6VUMgGpUEFrL63u5isrOn5UQQohG+tyIut7ZD0l4Dda9MMN6ZD16Bi89/SgTBnU8pME8oj5dcLnTo2hLdznb31JYOwVqmTtjMr5qB1xdnBg0SGG+n1zduKSR0m/LmqnhEoZr1Ad7Vv3mMtKbKZ171QiocRoBZKSx78hEYqYGEPN2MnNLcsj8JJUPM8qs3zwIIYS4JX1yRF3v7IfmkbVd7ch6VDjLn36UCeTz350I6Tq3dG+5kbuGdCaolUQsfYstz0eh9VczyGSkSJ9J+sGjFDUJ6Vo/tlLdNaP1KPimqZWwNWH6F4CR9M0riF2xDV1uGQwPIPKpdWxZE4Vvh89HCCFES/ruiLrO2Q9JeAPWPT+DJ1dOgKv5/Pem/4+/dzKkoWunv+sWpHWIMpKZkx0wlaSz5sUU8ut3hBE/NaS5A3AapYTDjea+PfxwHwymi+fJtdw+xI1QLEbYtSJHDgcqKbeYFTeczyR5QybJSj/mLl1C1HgtMfP2Er+zUVtCCCE6pW+PqOuc/ZCEN3bz908/ZfsthjQ0TH93hTvtFR0/aKILQ4Dr3xdbhDSoZoXg20Lue2mi8Lf6GLeSyPlBuGKi6ItGE92Dfbj/YQfrbT4LmDleARWFZOUCSgecLOsz5pF2uMB839rRs+PnJIQQoll9f0Rd52wG/32LAW3pdOH3XXKfulOy8yiJCcI/MIrEZT7kVphQDJ9ImA9cqcZ6YRgAJirtQlj5xkiyjhRiQIF7YAj+wxSYzunYsafR6Lf6Bh6Pvc5G/6Poz5tgsDehwZ6oqEL/UQp6AE0MGxaOwnD6NLkVJkCJ79QAVFSQfSCvSQ+EEEJ0Tv8J6i6mO17KE9oxPdR6Oolbh7NyQRhemjDcAUNFHnvfPIrX0wtwbVLeRNHuJIqm/gbtAxGoBgCmKkqz03hnk85qVA7AlSOsSFOyak4YWn/zJkNFIbqdb5J8sjbUiwso+t4H/8AwtAMw39e+kEfae0mkFjSuUAghRGdJUHfSxcs1lF4ydskjQH/88d8dPsZwMoX4kylNdyzObLoN4Mc8UjesILWd9Vce3Mayg9taLlCyj/XL9rWzNiGEEJ0lQX0Lnnz1Hz3dBSGEEH1c/1hMJoQQQvRSEtRCCCGEDZOgFkIIIWzYT+6+92f/rrx8qUcadx3qiMF4DUPND91SXgghhLAlTs4udDRzZUQthBBC2DAJaiGEEMKGSVALIYQQNqxPB7XrUEdU9nf0dDeEEEKITuvTQS2EEEL0dhLUQgghhA2ToBZCCCFsmAS1EEIIYcMkqIUQQggbJkEthBBC2DAJaiGEEMKGSVALIYQQNmxgT3fA9thzT7AvX2afxthDPZgzZQihfoNbLfOXgxV8XVpzm3rUG0SxfocWV/1WYhKPmjfNe5nUWWr07zzN+sM927vO0CzaQPw0J4r+/grxu8q67RghhG2ToG5E/dBiFv5iBP8KTCVh65EeCes5wUMAuFR1g0vVJqt9LoMVuDjIy9YfqAZ2/Kl6nTlGCGHb5D9+IxUfb2anxwp+ExzFOrjtYf27B9SAOaSf336uyf5Qv8H1ZXqVBxaSOMebkvdXkNgLR7c9IWvTM2Rt6v5jhBC2TYK6iRo+27oB6PqwnjNlCOM87FotM87dvv7n+LluTfa7DFZ0QU96wDA33B1VlPd0P4QQopeRoG5W94T1OA87qyBujYvDQJniFkIIIUHdMnNYG354jiXhUbzyg5FXtvfcArOu4UDok3FEBY/EtW5kbqoi/8AWVu7KM/+u9GNuTDTaQDec6gb/16ooPf0J72zSkV9fVwjxmxeiuaIjZqeBuCdnoRmuNFd5tZC9m98k9SsjdYu8vGqP0ixKJnURUJ3DxsVvkVW34OvdbZQ/MB+tl0PDPgDnEGIWP0roaDWqui5XV1B0ZDfrd5zE0JnL4KNl2W8fZNJwBxQDzNeg9FSj82ulXyzbRJymgr2rj+LxVKT5vM/piEpIBcD34SUsejAAd0dF7fUo49QnyST+vRCIYOWWaPzJIzn2dXSNuqZdsYkY/xtkJz5D4vhmFsMpg4hZ9pjV9TBUnCR1WZK5rpYW0LX7OjYsylt2xIf4eWF41Z6H4fxJUjckobvcmYsuhOgsCepW1XB8+59I4jmWhC/gFbb14rD2JnrdC0SOVGC6XEjWgWIMgMpzIl4ujuYiyjCW/XEBwc5gKMkh/atLmFDiNTkI3+AoVrk5sSYh1SKsgTvGsfLZ4agKjqLLNaEYPpEwf2/mLl1CZezr6Mjj8AEF+R6T0Y63pzQ7k9yrwA/FFFlU4z5nAa55KcSuOkpl3UafKNav0OJlZ6Lym6Poio1g54K/JgDfmUtIVG9jWWJmx8LaJ4r1L2nxoor87HSKqkE1JoTQ4ChWDVUQu3qfVX3N9SsUgCEEL36Q8kNJxOzNqz/Gd97LrJrlCfXXWInv1BCCH3+BtQOfZeWedPad+Tn+wT5MmQW6/Zad0zLFRwnn00nVA+Mbdz6AuD8sIXSokaLsdPKrQaH2Y1KgC62uWujMdVRr2bBIzZXsTHR118griJgV0eSuSKG0I9dcCHFLJKjbZB3WCcb1JPztQk93qsM0ixcSOVJBpb7lcAtdFEWws4mi/a8Rv7OwYccOJRHLXiVWE8H8X+xl5QcWb1WGDYf9rxFXX17J+RdfI3q8D6GPgG5PDnt35MA8b7TjB1KuTyG5yWIyJUOu7iP23aMW/XIjekEEXnZV6N99ifUZlm+Pat90aH5BrCaTRH17r0JtnZShezWB5IK67Wl8+fxrxAaGEeO/j425rfWrjgODzr7F2r15DZs8ooiZ4Qkl6ax5MaXhDc0HecS/sQDNfdH479mK/rOvKA8OYWzwbNi/r+H4RyYz1g6KctKaD8LgMPzVYDidSvzmzIbtzg44tXXOHbyOKo8h6N99waL8Ea6/kUDE8InM9cfiGgkhups88KSdjCYTMBDlnQ493ZVOCEHrr4bLJ3mnxRGolvv9lHA5h1TLkAbASPo7RyhCgW9gpPWu6jwOWJU3sverMkwoUDko293D8rP7rfvlMYvgkQpMBRlszGg8h1FIysd5GHBgbHhQu9uor/PbDIuQNvc5/VgBBtS4B7bRL4tjinJyrLa4ayfhpTDxzT9SrGcdjJkcO2sEtRt3A+TuRX8eFJ6BRNVfIiVRd49EYSpE/2ELczalV82zIKOC0DpbbL9c1TAL0dI5d/Q6lpxoVL6Qw2crABUqZ4QQt5GMqNtkz4Rf/57lM0ZgOLWThG35bR9iczxxGgymrwpoefDphMoOTGdbKGMsprIacHYhGMiu236ljPTGZS8ZuA44qQOAo+3on5Hy4kYh4umICrhScqT5oDxcRvmiALyG+gAn29FGQ52K8VGk7ohqtojrsBCLPjfTr3pXKT9hvcXLUQUo8J+XTOq85o5R4zHN3PfUnGK0s0bi/6CS1A+MoIxE46PAkHuE1JaaLElj35GJxEwNIObtZOaW5JD5SSofZpS1PP3fyetoqChoUj73qhFQ4zSipcaEEN1BgrpVFiH9xU6WJ/XMA1C6ynWTDff+x9vXVOU36WQXN7/PUNxoR4v9us71Zi9nFfkHT1B0s7l9Rr6rrd7w4RnyZ3ji5T8L1QdpOP0yAC+qyD7Q5G2P1fHpm1eQ/VEYUfNnETw+gMinApj1gI41qxqtHRBC9BkS1C1qFNIbe3NIGzCZQDXcD38yaf72YiWGa6C4ywcNuqajamXtqLyguGE03Z2KzdO8QzymoiKt6WhwmhuuQPmFnKbHtuSq0VznjxUk72i83vrWVV4zAE5cv5hC8v42ChvTOPatFt/xE3lUeQTVRLeGRWRtMJzPJHlDJslKP+YuXULUeC0x8/YSv7OZv9DuuI5CiNtK7lE3qy+FNEA6x741gjqI6HneLZTRcazACM4BRDUpoyRi0VS8MFH0RWsjvrYo2z9tWrLffB/XJ5y48Mb3ur2JfsgPFRXkH8lr9vBm5R6l6DIoxoQT49P+w9pd/ZFzVKJg7H3R+Laj/N7jBRjwxP83c/Ef1soisjpKB5wsL4Uxj7TD5ilqlaNn88d0x3UUQtxWMqJuoq+FNICRvW+nMuG1BWhmJZDsn0P2V5cwocB1zDhcyz9k2aaj6DamomlSpvbjWc7mFePr93TyanxnHtl5hSYQqyhGNVzJsQ1bzZ+VblYZye/q8H1Ji+apN9kSfpJsi48VuQ82UbR/KxvbveIbIIctH+Qw9qkAtCs34X/6JLkVJkCBq6cPXurz7Fia1Eqf2qDfRqp+DLGaCNZu9kOvz6P8GmDngpfPKFzP7yL2bYt79gd15Eb6MWlyAApTIWktLSKro4lhw8JRGE6fru23Et+pAaioIPtAS0HbHddRCHE7SVA3oo5cbA7pM7t5qU+EdC1jJutXmWofehFAhId5s+lqGdmfFzeUecFIVNxctGOty+j3prFxdycfMAJweCspgQlEB3sTMdMbzmdyoK1jClKJf7WC2Cd+TtiYELRjzZsNFYWkp+1iy8HGq9PbZsh4ixWmaJ77ZQi+mjDcAW6aMFVfIjfjaCuL7drDSHriKq4/GUfUvd5owmsfAWsyUXkxj/SsxtPLORz6torgYIfWF5HVKS6g6Hsf/APD0A4w99twIY+095JILWjluG64jkKI2+cnd9/7s39XXr7UI427DnXEYLyGoeYHmyhvZs/0Gfeg/zSDqx04qj1+94C63Y8QbYt8zaUQQvQ+Ts4udDRzZUTdRA2ffZrRLTX/5WBFt9QrhBCi75LFZEIIIYQNk6AWQgghbJgEtRBCCGHDJKiFEEIIGyZBLYQQQtgwCWohhBDChklQCyGEEDZMgloIIYSwYRLUQgghhA2ToBZCCCFsmAS1EEIIYcMkqIUQQggbJkEthBBC2DAJaiGEEMKGSVALIYQQNkyCWgghhLBhA3u6A7bHnnuCffky+zTGHurBnClDCPUb3GqZvxys4OvSmi5pL3TZJuI0oH/nadYf7pIqhRBCdBEJ6kbUDy1m4S9G8K/AVBK2HumRsJ4TPASAS1U3uFRtstrnMliBi4O8bEII0V/If/xGKj7ezE6PFfwmOIp1cNvD+ncPqAFzSD+//VyT/aF+g+vLCNvj//hyYu8fRHbsOlJ6ujNCiD5BgrqJGj7bugHo+rCeM2UI4zzsWi0zzt2+/uf4uW5N9rsMVnRBT0R3cRruiauyoqe7IYToQySom9U9YT3Ow84qiFvj4jBQpriFEEJIULfMHNaGH55jSXgUr/xg5JXtPbfArEs4hxCz+FFCx6hRDQBuVlGa9b/oWis7Wo2qdhBvOJ/Dh+++xd4C66K+Dy9h0YMBuDuaC5qulnHqk2QS/15YWyKE+M0L0VzREZOmYOWCMLwcFXDTSOnxNNZsSscUFN2wHagsSid5fQrZjS6409RonvtlCF5DlSgGADdNGL4/R9bON0k+2VDYvECugr2xuzEuimZ2oJv5nE1V5O/fwvrdeRjqCiuDiFn2mPW5VpwkdVmSxbVREjz/WaJDvXFV1pUpbGh32jMkLwpABYAnkTuSiQQ4pyMqIbVdL48QQjTnp3eN8H7lWk3PxI9KaYfJdAPTjR9tonxTNzh/+jilQ+7m/vBp3DOkjMOnL2Jq+8BmhfoNxsWha6aus/L+xaXqG+0/QBlG/Ku/I9R9EMb84/zjVD6FFQq8Jk9n8l3w05/e5MKJj8n6p7l49H+t4SGvn1Bx5ihHzhRyruZORnuPRqPx4MLHx6m7e+4772VWzfFDZfyOI5lfkFd4EcVIP/yDphJ4M51D35gAD0IfDsLt3woC7h0LuZ9zLO8iPx3mxcjRfvi7qLlv7jRUZ4+S9UUhFwYMw9fLl8l+P6L7R3799fad9zIbfqXB9ac1FJ44zIm8Is5Vq/DwGonf1FB8vs8gq9hceuTUhwh2g0GB0wkecp7Pj5whv/QaDiM8GOmnwbv6YzLOAgQQt+H3RHj8hNLjmRzLK+JclR3DvO7g0kf/IMd88YhY9ipxoW5wMYeso1+SX3qNoaN9CQy9B7fvDnLsvAK7m1eousMDDwcDuQcOoy8sojDvS/QFF7vgFRdC9AV29ko6mrkyom5TDce3/4kknmNJ+AISjOtJ+NuFnu5Uh4UuikLjaKJo/2vE7yys357sPJe1b8zGt/Hbj/I8Ura9bjF6VnL+xTeJHu9HaDhkZQAeUcTM8ISSdNa8mEJ+XdEP8oh/YwGa+6Lx37OV3Lrtw9QYdr7A2v21f6SHrrJ+jRav8DAq9dtYlphZO8rNQfH2MwR7BqJlH2k0tKW4msOWF94i3eLvfItPFOtf0qL5xQI0GUno6/eo8UDHmudT6/um+udyNs7zY+y02XBwHwSH4a8Gw+lU4jdnNlTq7IBT3c/TFhKtccBwehtxb2Q2jMQPRZP4UgTBP5/NxtX7SN2RSeiyEII9rlC0I0UWkwkhuoQ88KSdjCYTMBDlnQ493ZVOCCPURwmXc0i1CGkALqdx6Kum7+5S3n690RS3kb3nzgNKnEaYt7hrJ+GlMPHNPyxCGsCYybGzRlC7cbfl9uoCDu+3aKskg6LLABWc2m0RgOTwxT+NoHDA3d+6rfxDW61CGoCCVPblGsF5DPcHW/c5V5dq1TfD/jxKTaCwczJPU5dexQCoRgWhdba8LlVU1v4YGe6Higqyd1n2EShII/ciKIb5EIoQQnQPGVG3yZ4Jv/49y2eMwHBqJwnb8ts+xOYMx2kwmL4qsBhtNrh+s5mNSjcifhbJtCA3hjgPx/UOUNhZT9t7OaoABf7zkkmd11y7ajymAXUPUblSRrrV/jIMPwAYMZQ01ycVKkfLtiopaXzTulbWxQri8MTVC8iu21pBSUbjkpcwXAMcXdAAWSVp7DsykZipAcS8nczckhwyP0nlw4yy+lB2vFMBqIn4YzIRzbbuyCggq9l9QghxaySoW2UR0l/sZHlSzzwApatcN7Wz9z5RrF+hxcsODBVllF/II7P4EoZhE4kMbPwZ7iryD56gqLmwx8h3xbfY6W5nJH3zCrI/CiNq/iyCxwcQ+VQAsx7QsWaVxWj8WhnZGXn1o2xrFXx52/orhOhvJKhb1CikN/bmkDZgMoHqLh/cyaS00d4hdyjA4h516M/D8LIzon/3BdZnNJy1av4680rmWpXXDIAT1y+mkLy/O/sPRVfNbXkEK6Gk6SsROkwNVFCa22RXuxjOZ5K8IZNkpR9zly4haryWmHl7id9pxHjdBHYDMRxKIbmk7bqEEKIryT3qZvWlkAZI55syYFgQ88OVVntU4xcwc7z1lPYoJyVwlfITlmftTXSg9QNYco+coxIFY++Lxrd7Ol6vVHeGUhT43r+QCGWjnT5RzPZXQkUhWR0NaqUDTpb1GfNIO1xgvm/t6AmALvccJtQEPx5W+/GrtgzBNbjtUkII0R4yom6ir4U0gJGUj08StigIzVOvkTj5JLkVJhRqP4IDVZSXGMGjofShwjIivdyI+GMCqhPFGFDiOzUE1bUqwGIxnX4bqfoxxGoiWLvZD70+j/JrgJ0LXj6jcD2/i9i3j3bNKZSk8M5+b1bNCiD27be4X3+Compqz8EN1Y/F7N28tdl78K3SxLBh4SgMp0+TW2EClPhODTAvHjuQB4Dhg13sn/QCkYEL2PJ2ONknis33rwe74e/jyfWTTxO/s/aSXKwAPJk0dwkxvka8nI2sfFs+Ry2E6DwJ6kbUkYvNIX1mNy/1iZCudTiJZdeiiZ8Xgq8mDHdqH0yyeyPHxj5LnEVQl25PJmVoDI8GehM607v2wSgprDSGsWWW5ap3I+mJq7j+ZBxR93qjCa8dcZtMVF7MIz0rp0tPIX/natZcXEDMnBB8p0aYR/E3jZR/m0nqrm3oCtqqoRnFBRR974N/YBjaugeoXMgj7b0kUuvrKyRl3VsYY6LRTqq9JgDXjJQXn0SX3VCdYWcKaV5xzB0bhHY4GHLTbuWUhRCCn9x978/+XXn5Uo807jrUEYPxGoaaH2yivJk902fcg/7TDK524Kj2+N0D6nY/QrQtXfk1l0IIIW4PJ2cXOpq5MqJuoobPPm3ymZ4u8ZeD8mUNQgghOkYWkwkhhBA2TIJaCCGEsGES1EIIIYQNk6AWQgghbJgEtRBCCGHDJKiFEEIIGyZBLYQQQtgwCWohhBDChklQCyGEEDZMgloIIYSwYRLUQgghhA2ToBZCCCFsmAS1EEIIYcMkqIUQQggbJkEthBBC2DAJaiGEEMKGDezpDoimntCOYeY97q2WeX5zNhcu13RJe6HLNhGnAf07T7P+cJdU2YIo1u/Q4qrfSkzi0e5sSAgh+gwJahv0hNYHgNMF3zfZN8xZyV3O9re7S0IIIXqIBLWNWf74RMAc0s9tPtZk/xPaMfVBLnqbCOI2/Bzff+4ibpPMKAgh2keC+jZ6QjuGQO8hrZYJ9BkKmEfOf1o8pcn+Yc7KbumbuB3UuA93QHWxp/shhOhNJKhHT+Duyi/54nJHjpnMvZzg87MdayrQewiBPkNbvbdsua+5UJZpbyGE6F/6eVBPZfnSedz945ds/8OfOdCesB4dySvLtIwxTMC0YjvHO9Fq9B8+68RRZrc09e0cQsziRwkdo0Y1ALhZRWnW/6Jrobjvw0tY9GAA7o4KAExXyzj1STKJfy+sL2NeiFbB3vkpXH06htmT3HBSADeNlH97lJTEFLKN7ezXaDUqc1OYqisoOrKb9TtOYgDcn1xH4gNulB95nbjNeY0qiGDllmj8r51k/dIkVHV9it3HoPj5RHg6oBgAhvMnSd2QhO5aEDEW27lajG7b6ySftO5oh84/djfGRdHMDnQzX1tTFfn7t7B+dx4GIHpdMpEjaw/SLCR1x0LAeBsW8Akhert+HtRHSPrzCBKeCefJ//pPaCus60KaIj7a0r6QnnmPO9p7PADwdh8MwJ8WB3eqt3/Vfdup4wBQhhG/ZgEaRxOV3xxFV2yEwZ4ET4lm/k9NgMmqUCVV0AAAIABJREFUuO+8l1k1yxMuF5J1oBgDyv+fvfuPi7LM9z/+2nKIZgQGBBQhaGJEIQJHXcAV8EglukW7UWfpJNaRNvGUnowtM00rTdc6RbVq37Si3ZU60SZlP8UKN8GjmDhGCqXghIEoKKDCRAy23z+GGWaGUYFQB/o8/4m57+u+ruu+fTx6c/24B8ImxhF7xwKWD3mQJZtsQ82NoKx5pGhb0e8opL5NgX/EeHSjk5i32ETT4jwOnK1f2jRWPZKMxt2mX+6+ROqiCJt6P9l+r5OVXUTtP0o5MPlmwrQJRFLBPts6fjeR0Uqo/b989EC8+YaJXDwL/zNlFH5mRDUqjnjNeGb+aRZXE0fClZUUfbYbk0co8RNDSL7/QZrnriDf2Jf7VxK5eD5BV1RS9FkFJvcAdBPDCUu5n6zGuSz/DPYXFeLmF0Ds1HBUNaUUlp8EjHxX3fd/UiHEL8MvPKjB+M3brHiB84e1bUhnP8c/ejjtfazxB6K1PnbHHD/31F2M4quq3szRd4mfk4bOy4Rh8zMsfKNrRJjjk8ryZ28mzDaog9LIuD4EagpZ9mhuV8hurGDhs7PQTU4nctN6m7AMINKvkCX32ZQlj5RHnyE9IomZv8tjySZnvQogfVYSGvdT6F9ZxKpttuEXSvqKBaTobiNTV0S2Pp/ib5MIi4xgqg726S3llKSNDUZhqqLkH3U21/vh35LHvD8X0ArA5zSteIKU4ASSTpaxbsELFHY2p7/sBRbGBqO7EfI39eX+/QiigGUPdf1Covr+YVbPCGf0pJvhsw/Rb85FTxphU8NRNJSSs0E2kwkheka+8ARzWC9+5nO+U17L3Y/9F1Mdc/Sa61k0t/chDXC0qX/edQYY3uf16QTitUpoLCPPJqQBaMxna7n9lG9g8jg0ChPffpFrPxI2FrHrkBH8Ahhrd4WTshj54IMy6lEQOCrBebeCphEbrMBUuY3V2xznx6vI/biCVjwZnTgegILiSvPnSVFdxZQp6LQKWr/dQZ5dFUYObLeENEAdWw81A1Cvz7OGNIC+7DtaUaAODO/j/RvZV2A/a9C6uYJaEyjc1aic370QQvTIL35EbXXoXRY/AysWXG8/sr7mehbNvZVr3Xof0mAeUX9V2djnUbStET5X9jGsR6L2AFN5JXonZ9t/sv+s8VIBCiJn5JA3w1l9fgRNAqxrq8ep3eak2L6TtAL+3iOddyvECxXQVLPDJlBtbK+jfk4UmmFaoBS2F7LvD1HERiQRTxnFQOC/R6HBiL640OHiBmoc+lTbZk7n1rY6+xNnzP9RuXsBfbn/7m3BcVrbAC9fdECxs2qEEKIHJKhtWcL6oc6w/st+oufeyrUc4M3sv/BRL0Pa4u8FB3lO27d1aUcjvPu+67vddL5dXbZOceCz3Rh+cnbOcW21nfZzVG1qdxrDfVBG3p46Ym/QMuUGKP4sgJuvC4DGUgr6fUNWb+5fCCEuHAlqR4feZfGznWG95Fo4eYA31/Q9pKF/p78tG9J6pxWTCVQjtARSRK3DWe8rFNhuJmtuawXUtB/LJWdzT+p3HGF2mhZMENDUUOXkGqDaPOL2DpqIivzuo+pJAfgD9UfLrIcsm8o045PgRDjjhkPtZ/lOZwr6qvf3L4QQF46sUTtz6F0WP/s2H33+OX/7mSENXdPf/WHolYo+XFXIt3XA8PHMTLR/N1sVMYupEfZ17ttxmGYUjJ6cTliP6lcSlpiM2u5YKJk3hKOggQM7HF+n6lSzGf0RUGgTmZfo+M54KOm/DUfleL1xM/uqTai048mcEo662yayn6/39987KnXIBahVCDFYyYj6bA5t482fGdC2vqo60S/r1H1jJPfjUhLmjEd37zNkTyhlX4MJhV84sdEq6muMEGRTXP86efpRZOqSWP5SOHp9BfVtgLsvGu3V+B95i8wXd9rVbwpMY82zURR9VYep81UmjQc06z8k56zD3TpyXikgbFEyunufZ11iKSU2r2cFepgwbF7ParvrjeRtryT5bi0Jkc42kfWDXt9/T1XTfBrQTGT5vQoMygBUu/+H1fIetRDiHCSoL5KCL2u5K3nUpevA9rVktaWzcEYcYboEAun8Ao+3V7Nr9IPMsw1qjBRmL6X97nmk/SYUXWKA+bDJRPOxCgqLyxwqb6BoaRGqh28haWp4ZxUNHNjS9YUlZ1WZx8KVDWTedQsJo+JIHm0+3NpQRWH+W6z7zMm0+WcF7EsJJ9bHyLeljpvI+kNv77+ndrL6rSiWz4gjLDGJsJ/qKPy83zothBikfjX2Nzf+q7nx+CVp3H+YF63GNlp/+NElyl9of1s0uV++AvTMmX+R8fS2fvszlz9H1zeTPUnuRWs1iqwX5xOL+ZvI+nN9WgghLiS1jy+9zVwZUV9Ed6/84lJ3YXC4IZlIn/7fRCaEEK5INpOJAUZJ2iQtqguwiUwIIVyRjKjFwDBpNksmGGkeFke8Bmq3vNX/m8iEEMIFSVCLgaFDQdCEJCJ/MlK7I5clG87ybrYQQgwyEtTiZynOnntxvh6zZC2ZJRejISGEcC2yRi2EEEK4MAlqIYQQwoVJUAshhBAuTILahv8wL1RXXnGpuyGEEEJYSVALIYQQLkyCWgghhHBhEtRCCCGEC5OgFkIIIVyYBLUQQgjhwiSohRBCCBcmQS2EEEK4MAlqIYQQwoXJH+UYBO5KHsXUXwees8xDL5VwtPGHi9QjIYQQ/UWCehC4K1kLwFeVJ7qdG+6jZITPlRe7S0IIIfqJBPUA9/Ad1wHmkP7TS7u6nb8reZQ1yPtb5B0PkznFjZLMFeRekBaEEEJIULuwu5JHER3qfc4y0dphgHnk/Nx9Md3OD/dRXpC+AahHhuCvbLhg9QshhJCg7r1rrmVs8372Nvbmmgn8ht3836HeNRUd6k20dtg515ZtzzkLZZn2FkKIgU2Culcm8vADMxh7Zj9/e+r/saUnYX1NCk9kJTOq9VpMj/yNL/vQavpT/+zDVWZ9n/oOJWVuBjdHB6B2Nx8xnaxi88sryPWaT86cKFQAhJCyIYcUgMMFpC3OMxdWhpOakU6yzfW0naL2q094eU0BB6ztpLFqQzL++tdZ15BExg0hqC8zon95Lqu2K4lMmUVGchSBXorOTpzCsHUDyzeU0mrbXZ84Mu67lfhRfqguA346RW3x+xR4pJKho7O+ruJhN93PnOld9ZpO1rHnkxyyP6rqw7MSQogLR4K6V3aw9v9dxeL5idz92H/B+cLaEtIYeG9dz0J66q8DSf51EAChgR4APHdfbJ96+/eCg326DpSkPr6ANC3U7yui4IgJPELQRfsR5AVUl1Kw5TiBEQnEBv3Avi27qQVoqOi8PIGsP88i1gdaa8ooLD+OCSWaCeMJi01jaYCaZYvzbMIaCLqZzOHfkPPgkxRbnumk2WT9IQq3xiqKt1TTipKw+Dg0U2ezxPQEC9+qs7a3cNksdF4mmr/dSUG1ETxCiI1JZ+blJsBkd3dhMx5n6bQQsK13Yhyxdyxg+ZAHWbLJ2MfnJoQQ/U+CupeM37zNihc4f1jbhnT2c/yjh9Pexxp/IFrrY3fM8XNP3cUovqrqzRy9RQoxWgXUFLLw6dyukavSEzWAsYi8DUXEZ8URG9SEYUOu3Way+DlpxPqYMGx+hoVv2IxQNyhJylpJpi6Jmbd9wJKNXYGoUp8if+7rFNtlpBHDP9eS/ZrN6HmHidWPJ6CJvh7VW+a+xc9JQ+fVvb0cbRqrFiWjsQ3qoDQyrg+BmkKWPZrb9cvCxgoWPjsL3eR0IjetZ18fnpoQQlwI8oUnfWD85m0WP/M53ymv5e7H/oupjjl6zfUsmtv7kAY42tR/7zoP7/P6dAOtRmB4KGkRNuvexlM0n3ewmcyUcCU0lpH3huM0spHCl3dgQEFYdIr9qWPVfOhY9/b1LH/NYYq7soLa04CXLzoA4ojXnqW9yjy2lNtXGpg8Do3CxLdf5NqP6I1F7DpkBL8Axp7vFoUQ4iKSEXVfHXqXxc/AigXX24+sr7meRXNv5Vq33oc0mEfUX1U29nkUbWuEz5V9DOtC8rZMRHNLKMmPriG+oYqSLR+Qt7mM5vNeq0blDqZDleidnTZW03wa8PElFijpPNx6oto+kC21RSeTev0Ewvw88fdV4+amQHEZcNpSIgS1B5jKnbfX/pP9Z42XClAQOSOHvBnOOuhH0CRgu7NzQghx8UlQ/xyWsH6oM6z/sp/oubdyLQd4M/svfNTLkLb4e8FBntP2bV3a0Qjvvo2qD2xcQcbWKFLvvJUp14WSNGM+SdNLWffoWgovxBLuTyaHA0qSHlhJ5gRPMJ2itqYJg/5rak+b15M1DqXbTb3p1CkOfLYbw0/Ozhn5rrpXPRdCiAtKgvrnOvQui5/tDOsl18LJA7y5pu8hDf07/W3ZkNYnjWXkrykjH0/i5yxmzqTxpM+JozB75zkuaqa1DRQjtOgo6D7KVXaOgCurraNpp5QpTJ3giclxLZkEFk6M61ZcNUJLIEXmTW02vK9QYLuZrLmtFVDTfiyXnM3n6oAQQrgGWaPuD4feZfGzb/PR55/zt58Z0tA1/d0fhl6p6MNVnqjtZt5PUfz3r6kH3Dx8Hcp64283+C9gV6URfKJImxHqUFZJ0pyJaDBh2Ft47i5c54s30H6i2m4tWTUtjjC73z22ceAIMHw8MxPt3yNXRcxiaoT9/e/bcZhmFIyenE7YuXsghBAuQUbU/eXQNt78mQFt66uqE/2yTt0301n4fAKqg2Xoq42AgsDoOAIxsq+kK2D1xxqAEMal3k9GmBGNj5ElL+ZRsDoP3TOz0E1bTE5kGSW2r2f5KGjWv86q870CVVJBTcZ4IqPTyM7Ssq/BhGLkdSRooek0ne9wA9SR834psXPGo7v3GbInlJrL+oUTG62ivsYIQTb16l8nTz+KTF0Sy18KR6+voL4NcPdFo70a/yNvkfniuWYMhBDi4pKgdlEFX9ZyV/KoS9R6NQeOTCRpVBzJo81HTCerKfxbLus+6wrY1jdyydfMI3X0eJJHQuu+fPMJYxGrFhhJm5dK8ugokoIsddSh/yCf1W+XOt04Zq+Q7PUjWTIrAY0ugUCgtaGCD57fiWbuLPxti25fS1ZbOgtnxBHWWdZ0so49b69m1+gHmWcb1BgpzF5K+93zSPtNKLrEgM7OmWg+VkFhcVnfHpkQQlwgvxr7mxv/1dx4/JI07j/Mi1ZjG60//Dggy19of1s0uV++AvTMmX+R8fS2X+SfuUx6aA2Z0R2UrJlP9jkXxYUQ4sJT+/jS28yVEbULu3vlF5e6CwNcFGOvUoKpiu8kpIUQA5RsJhODVtiMWxnnA6bqryi41J0RQog+khG1GPjuWExOjJLamkoMDSZASWBkFJEjlWCsIu+1D3uwJi6EEK5JgloMfN9XUx8ThyY6gTDLHFHbKWr1BeT/Na/rj3wIIcQAJEEtBr7tuSzcnnv+ckIIMQDJGrUQQgjhwiSohRBCCBcmQS2EEEK4MAnqnyFu7OhL3QUhhBCDnAS1EEII4cIkqIUQQggXJkEthBBCuDAJaiGEEMKFSVALIYQQLkyCWgghhHBhEtRCCCGEC5OgFkIIIVyYBLUQQgjhwiSohRBCCBcmf+ZykOnw9qNFl0hz0m0ADGlqwN1QzlB9Ee6GcqdlW3SJ1mPqrfkM3fPFBelb5B0PkznFjZLMFfwy/yhlEvOevoWw799i3pqdA7gNIcTFJEE9iLRpIjh6z2N2xzq8/WjxnkybJgLf/HXWsD56z2O0aSK61XE8NZPmKakEPfdAv/dPPTIEf2VDv9c7cPgRONIT1bGB3oYQ4mKSqe8Brk0TQYe3X7eQtoykLTq8/TiemkmHt1+3kB7SZB+eljJCCCEuPRlRD3Ad3n64G8o5mtEVrEP3fIFv/jrrecvUtruhghZdojWkhzQ12I2yW8ZN5nhqpvk6tV8vexJKytwMbo4OQO1uPmI6WcXml1eQ6zWfnDlRqAAIIWVDDikAhwtIW5xnLqwMJzUjnWSb62k7Re1Xn/DymgIOWNtJY9WGZPz1r7OuIYmMG0JQX2ZE//JcVm1XEpkyi4zkKAK9FJ2dOIVh6waWbyil1ba7PnFk3Hcr8aP8UF0G/HSK2uL3KfBIJUNHZ31dxcNuup8507vqNZ2sY88nOWR/VNWjp5O+IoeU4M4PutnkbZgNGO3a6UkbqvHpLJwRh2aYEsVlwE9G6r/MZ96awh614UgVcTOZM29g3EhPc33GBvZ9/ldqox8mObiaD2Y+abNM4eT5/mSi+UgZH762lg8qe/QohBC9JEE9wA1paqBl3GQ6vM3B6m4ot4a0ZZ3aok0TbnfMNqTBHPAtugS7UbrjurZzSlIfX0CaFur3FVFwxAQeIeii/QjyAqpLKdhynMCIBGKDfmDflt3UAjRUdF6eQNafZxHrA601ZRSWH8eEEs2E8YTFprE0QM2yxXk2YQ0E3Uzm8G/IefBJihs7j02aTdYfonBrrKJ4SzWtKAmLj0MzdTZLTE+w8K06a3sLl81C52Wi+dudFFQbwSOE2Jh0Zl5uAkx2dxc243GWTgsB23onxhF7xwKWD3mQJZuM531C+4sKcfMLIHZqOKqaUgrLTwJGvqvuRRu62ayaH4f/6WqKP6uiFQX+EdHo/P161EY32jSWPJSM5nIjtV8Vsa/BhMIvnNib5jP6TPd/46QHVpI5wRNO16HfVkF9G6hCJhA7ejzpix7Ha+WT5EpYC9HvJKgHgQ61r/Vnd4M5/JqTbusW1I6chfCQpgbQdP7c3NP15BRitAqoKWTh07ldI1elJ2oAYxF5G4qIz4ojNqgJw4Zcu81k8XPSiPUxYdj8DAvfsBmhblCSlLWSTF0SM2/7gCUbuwJRpT5F/tzXKbbLSCOGf64l+zWb0fMOE6sfT0ATfT2qt8x9i5+Ths6re3s52jRWLUpGYxvUQWlkXB8CNYUsezS365eFjRUsfHYWusnpRG5az77zPCH95lz0pBE2NRxFQyk5G2w2evWwDVViBP4Y0b/1JKu3dV2u9vE8fxvdBJA+KwmN4hT6VxaxalvXg8xNnE/2vVHmfzuLSbNJn+CJ6XCBwy9NueR0lp82I5V3n8y3n7kQQvxsskY9wLkbyu2C2vJzh9oXd0M57obybmvQ0H1d2qJl3OQ+9KKBViMwPJS0CGXXYeMpms872ExmSrgSGsvIe8NxGtlI4cs7MKAgLDrF/tSxaj50rHv7epa/5jDFXVlB7WnAyxcdAHHEa8/SXmUeW8rtKw1MHodGYeLbL3LtR/TGInYdMoJfAGPPd4vn0dM2appbASWamCS7EG1uPNX7RpWJRAYrMFVuY/U2+3tu3baekhr74imJ4ag4xZ53HGY2OssXHQaF9jpu7X1PhBDnISPqQcD9u2+sAdumibDu8AbLyNq8Jq3cX4Lx2ljAvHbdnHQb6sKN1s+W9WkwT4OfLcy7KyRvy0Q0t4SS/Oga4huqKNnyAXmby2g+77VqVO5gOlSJ3tlpYzXNpwEfX2KBks7DrSeqnY7c1NHJpF4/gTA/T/x91bi5Kcxrr6ctJUJQe4Cp3Hl77T/Zf9Z4qQAFkTNyyJvhrIN+BE0CzrIG3BM9baP2H5spvi6d+Oh01v3tFmq/2sGHb31A4ZHzT713owvAH2iq2eHkORq7PQevoQpoq+Sg838kvjthhGBv/G3/kYQQ/UKCehBw3N199J7HcDeUd3v9ynPnp1z2Y5s11JuTbqNFl8iQ5oZuZS1B31MHNq4gY2sUqXfeypTrQkmaMZ+k6aWse3QthX3IkfP6yeRwwGYN1XSK2pomDPqvqT1tXuvVOJRuN/WmU6c48NluDD85O3eONeBe6UEbxiJWP1RKfmIqGTdNIFKXTKYuiamOSwa9YGo/+XM6LYS4CCSoB4EhTQ2MeO0pu1eqHIN3xGtPmafBmxusG8XAHOyWjWiWunob0laNZeSvKSMfT+LnLGbOpPGkz4mjMPtca6XNtLaBYoQWHQXdR7nKzhFwZfW5B2rKFKZO8MTkuM5LAgsnxnUrrhqhJZAi86Y2G95XKLDdTNbc1gqoaT+WS87mc3Wg73rXhpHabbks35aLKuJmsuamEjktnfR3nyS3N797dJgwAf5BCUCBw8kAVFfYHznZYoLgQEbpwMk/ElcPU4Kpiu9kNC1Ev5M16kHC3VBO0HMPoC7caJ2yHtLUgLpwI0HPPWAddVuCWF240W4k7qxsz3mi9rH9fIriv39NPeDm4etQtnN61KqAXZVG8IkibUaoQ1klSXMmosGEYW/hubtwnS/eQPuJars1VNW0OMI8bAtu48ARYPh4ZiYq7apQRcxiaoTC7ti+HYdpRsHoyemEnbsHPaZSh/SpDZWPZ+crbmat5R+y/ZARUOJ9zbnb6KakghojKEYlkqG1P6W+KZ3Y4fbHPviyklY8GXd7Wrc+qhJnkxAMpuqvukW+EOLnkxH1IGIJW8u68/nK9Z/pLHw+AdXBMvTVRkBBYHQcgRjZV9IVsPpjDUAI41LvJyPMiMbHyJIX8yhYnYfumVnopi0mJ7KMEtvXs3wUNOtfZ9X5XoEqqaAmYzyR0WlkZ2nNrxqNvI4ELTSdxibg6sh5v5TYOePR3fsM2RNKu15LilZRX2OEIJt69a+Tpx9Fpi6J5S+Fo9ebX0vC3ReN9mr8j7xF5os9/arOzvV2zUSW36vAoAxAtft/WL29Z23o/nMZ865pRf9V53mPUOKvU8KxUgr2nacN7mfdnPGoDAU8sjSPWgrJ2ZrA0zeFkLzoBTS7d2M43fm6VUgTNcdAYxvWn60lN2olmbpklr8UZe2j+fUsTxQny1j3Px/Kjm8hLoDLR1wV+kTbDxdiEfH8VEp3TKYOTB3dXtocEOWDRvhSc/REj8oObh4Ex0YQcXUoYVoN2tAQvM/U8EXeerK31FtLmb6u4fJrxxKpMZdxbyxj0/YDYDpM8T9ruFxzFdoQLaPDNGhDg/Bsr6fs07+z/NWdNgEQyQ2pWlRHS9m0w3ZrsoHSOg+iwjUEX61BG6rB/1eH+filQi6P0RHAMXZ9tJPDAN9/ydbDHoSHBqEJ1aIN1RCkbOGrTevYeuVEYgPg6O6PKf4ewIRhx/9x1HMUmpBgtFpz3dqRPlzeUknh5o/ZX+e4Xn42NehPD2dCeCgarQbtiA4qCwspre9ZG2f8x6AbFYI2zNxn7Qg3Gr4p4NWn/5cy03nacI8hZcJI3Jqr+Gzrfk4Dp/d9wb72IEZfHYRGa65z2L9q+OL156gL+y2jvU5y4N0vKMPyHLbxvUJD8NVBhHX2IdjrR46Wfcqrf3Z8VU4I4Yz7lUp6m7m/GvubG//V3Hj8AnXp3PyHedFqbKP1hx8HZPm4saPZuffbHpUVA0PSQ2vIjO6gZM18sn+x661KMv68huQgx28mE0L8XGofX3qbuTL1LYRVFGOv6sOmKGUAYdeocTtrgXaaDlVRO1BGnMpp5mnvhjr2Xuq+CCEkqIWwCJtxK+N8wFTZy01RujQWWr/L3Jlzf9+2a1GSNCeRMAXUV+487zeuCSEuPAlq8ctzx2JyYpTU1lRiaDABSgIjo4gcqQRjFXmv9XJT1PYXyBgQIWwvfu7TzLzKSE11lfnb29x9CYsMR+OjwNSwk7yXyi51F4UQSFCLX6Lvq6mPiUMTnUCY5QXFtlPU6gvI/2te1x/5GOQM3x+mdUwUo2NDiOx8DqbTDRzYVkDeG4UymhbCRUhQi1+e7bks3C5bpGo3rSVr06XuhRDifOQLT4QQQggXJkEthBBCuDAJaiGEEMKFDQH4Lm3DJWn88uY9NLoH0OQeMCDLx3371CV7dkIIIQaesZ8+2OtrrJvJ+nLxz6UeegV+7R20tffsKztdrTzBwy7JcxNCCDHw7L3x+T5dJ1PfQgghhAuToBZCCCFcmAS1EEII4cIkqIUQQggXJkEthBBCuDAJaiGEEMKFSVALIYQQLkyCWgghhHBhEtRCCCGEC5M/cznItHv50BgRy9GJ0wFwO9nI0JqD+OzfxdCag07LNkbEWo+N2PkJPvtLLkjfpj/yAn9KcqMo+T6evCAtCCHE4CNBPYi0BI2i8g/z7I61e/nQ6BVLS9AoggvesIZ15R/m0RI0qlsdh5NncDRuOhGvPdHv/fMNCmbY0MZ+r1cIIQYzmfoe4FqCRtHu5dMtpC0jaYt2Lx8OJ8+g3cunW0i7nbQPT0sZIYQQl56MqAe4di8fhtYcpPL2/7Ye89lfQnDBG9bzlqntod9X0hgRaw1pt5ONdqPsxmtjOZw8w3ydx7Be9iSGrOdm8/txwXi4dfbtZCUf/+U+nvR6hm3/PRYPcy/4/fYt/B6gejO6O7PNhYOSyHrwTrvraW/BsGcz2X9aT7G1nSzyt0/Dd8961tZP4/4bg/G4vIVdf0klM28E0/97LvdOG4vGy62rjsK/Mm/5+9TadnfMLax8+E7iR/ngcTlwpgVD8Tt87HE794+js76u4vH3P0XWTV31tp88zK6P1jNv7a5zP5ZetjPm9oU8PiOGa4YNxe1y4Ew7p08cpvjvy1j07tEe/2sIIQYPCeoBzu1kI43XxtLu5QPA0JqD1pC2rFNbtFyltTtmG9JgDvjGa2PsRumO69rOjSDrr0uZOQpqy4opPtIO6mBion0Y6QUc2sXHmxsJDI8nPqSFss17zaHZUG6+POh21r00m5hhcLp6L59XNNLOUDS/HsuYuNt57s2h/OnObJuwBkJu537/ctbO/iN533QeS8vi0bSxXHGikuLNhznNUMbEx6CZNpvV7YdJfXpvV3vZs4nxaufEN7v45LsWc38n/if3mp+U3d3FL3qV524KBod64+9cyv9e/kf+4y9nCdA+tuPW3sg3XxZiaAY3fy0x0VqmP/QSw668j8w3JayF+KWRoB4E2j19rD8P/b4SMIe0Y1A7chbCbicbIajz59MnetiDO4kf5QY1hWSUQ+7iAAAgAElEQVT+16qukWuQljEANe+w6kuYuTqf+JAWDi1fZbeZbOYjdxIzrB3DR8tIXWk7Qh3BzNUvkTVuGvc/+CbFz3eFlIe6kbz7lpFXY9uPFgyFa1i0xGb0PGkpnz0Tj2bcNAIx/4Iw85E7ifFy0t6kLPKfmobGtspfZ5E1LRi3mkLmpa3q+mUh6HbWvTabmBvmMv0vj/GJk6fSp3ZO7iV79gI22N5XZ/mYO+by+zcf4z0nbQkhBi9Zox7ghtYctAtqy8/tnuYp8aE1B7utQUP3dWmLxmtjnR4/t6Oc/gHw13L/jSO6DtdU8k3NWS/q9J/cED4UTuzl7ysdp5GPsuHpYgzAmHF32p+qO2wfZgB5y7h7icMU9/ZyqloAtQ9JANxOfNhZ2tuezbv77Ee5MbeMRXN5O2WfrrIf0de8Q/GBFhg2ghin99WXduCbT7O735el/LAIpt/utDEhxCAmI+pBYGhNpTVgW4JGWXd4g2VkbV6TVh/cS/OosYB57froxOmM2PGJ9bNlfRrM0+BnC/Pu3uSVj+JZeauW6U/8nevvq6So4H1efXkz35z3Wh88roT2Q5XOR4o1h2loAc2wEaQBluXc0/WV9oHcacxN/8ld02IYM8wHX/+hXOHmZl7rteZiMH5Dob36LO05GK0eCrgRNWsL+lnOy4y07ZhVX9o5Sm2x86ntDXWNZBGMX2gPKhNCDCoS1IOA4+7uyj/MY2jNwW6vX/nqi7is/UdrqB+dOJ3GiFjcTp/oVtYS9D1V/Px9JH4yjYX33s4N0Vqun5nF9b9NIvu+Bd1HiBfECGa+8AJZv/aB9hZqaxoxfLWX2mY3xsTH208zAz/+2OK0Fuda+ObTXRjOOD9XcejsV/auHSGE6E6CehBwO9mI9u3Vdq9UOQav9u3V5mnw0yesG8XAHOyWjWiWunob0lbfbGbVnzazCi1pK5eycPJY7n3kdjbMe+ccFzVy+gdwG6Hl99B99BlkHplysLL7oNWu3J3c+msfcFxL5nbWFXQPao+ACGIAx8l2zyvcgHbr5+M/tANDaa9ZxaJXz9UB53razrfNLcAIAuNHwJfdR9UzA3yARmq/6n0fhBADm6xRDxJDaw4S8doTjNjxiXXK2u1kIyN2fELEa09YR92WIB6x4xO7kbizsj2nZcwY28+V5L1UTi3g4eHjUNaHkXbrrH+l6GA7DBvLXYscV3tHMPOReDS0882e98/dhbgR+GKeErddSw78Yzxjh9oWLDSvmweM5Z47R9hVEXjjUqZf62Z37JMvKjmBG1E3LiT+3D1w0Lt2dr1vfl5jbsxiZpBDVZOyuDVyKJyo5PPNveqEEGIQkBH1IGIJW8u68/nKsaO/Wr6FleuT8Dy4l13ftQBuBEbHEEg7ZcVdAVvYuc469t+fYWV4C5phLfzH/GxeXfFXfr1+NjE3PcW2yL3ssn09a5gbp/es56GzvQJl8c5eDHPGEjXuTj5cHUFZfTtuIyNIGOPG6Rboeit8L4vy9xL/32OJuf8lPpy411zWX0tMtA/Ha1qsu94B+GgNf5v2ElnjklhdoGXXrkpOtANuPmjCtfjVvMkN898Bbmfdx7OJufIw7y34I09+2ct2vlzFqo+0PHfTWLI2vMVv9+y1eT0rGI8zh3nvadnxLcQvkQS16AeH+aamnetHxTC9c2TdfvIwn7+6node7wrY2pXryQtdSNqYsUwPgvb9nVPiNe+QObudhYtv57djxnJ9SFcdu959n2XPvu9045i9N1m0NpjV98ajGRdPINBeX867K4vRPDQbu69vyVvAf7Qv5Nm7YhhjKXvyMLvyVrFrzEKy7Ea0R9kwbwHtS7K4N15LTFJwZ+faOV1Xzsdf2O0Ft9erdqB45R/5U91Ssv49hjFxSeZX2860cOJgMWtzlvHq9vM+BCHEIPSrsb+58V97b3yesZ8+eNEbVw+9grb2Dtrane7ScfnyY4KH8c3hnr5rLAaCmavzyRoHu55PJfNcS+sDpB0hhOuwZG1z4/FeXSdr1EJYTSMmZCicOcq3FzQ8L1Y7QojBQIJaiE7xi24nZhi0H9p77h3mA6QdIcTgIGvU4pfnkZfYFudGbc1hDPXm168CoyOIChgKLZVsWLu+B2viLtSOEGJQk6AWvzzfHeZ4XAzXRAcz5vLOY51/qStvbXbXH/kYKO0IIQY1CWrxy5O3itSLMed8sdoRQgxqskYthBBCuDAJaiGEEMKFWae+9974/EVvPLR5D43uATS5BwzI8mO+feqSPDchhBC/HL8a+5sb/9Xbl6/7i/8wL1qNbbT+8OOALC+EEEL0htrHV77wRAghhBhMJKiFEEIIFyZBLYQQQrgwCWohhBDChUlQCyGEEC5MgloIIYRwYRLUQgghhAuToBZCCCFcmAS16LX4rDXkbVjDwkmXuidCCDH4SVALIYQQLkz+zKWL6/D2o0WXSHPSbQAMaWrA3VDOUH0R7oZyp2VbdInWY+qt+Qzd88VF7bMQQoj+I0Htwto0ERy95zG7Yx3efrR4T6ZNE4Fv/jprWB+95zHaNBHd6jiemknzlFSCnnvgovRZCCFE/5KpbxfTpomgw9uvW0hbRtIWHd5+HE/NpMPbr1tID2lqsKvTUkYIIcTAIyNqF9Ph7Ye7oZyjGV3BOnTPF/jmr7Oet0xtuxsqaNElWkN6SFOD3Si7Zdxkjqdmmq9T+/W+Mz5xZNx3K/Gj/FBdBvx0itri9yk4S3H1xHT+9O9xaIYpUVwG/GSi9cRhit94npxSo0NpT+LvnkdabDD+HgrzIdMpDmxZx5K3Ks7SQuc1vwnFX2k+0lxTRP7nXqTdHQX69WRk7+ze/2v8UFmaON2AYcfbrNpQSmvvn4gQQlx0EtQuZkhTAy3jJtPhbQ5Wd0O5NaQt69QWbZpwu2O2IQ3mgG/RJdiN0h3Xtc9KmcDCZbPQeZlo/nYnBdVG8AghNiadmZebAJNd8bAZj7N0WgiKtlMcKCnEcBoUfuHERoeSPH8l/q8sYtU2S1iHkr5iASnBCkyNVRRvqaYVUIVch8bX62wdIilrGZk6T/M1xdW0okQzIY6MO829abctrk1j1SPJaNxt+u/uS6QuirCp95Pt9zpZ2UUS1kIIlydB7YI61L7Wn90N5tFlc9Jt3YLakbMQHtLUAJrOn5sbup0/m/g5aei8TBg2P8PCN6qsx3N8Uln+7M2E2QZ1UBoZ14egOFnGugUvUGgzeF6nTWPVomR0t81Ct20tekB332xSghU063sRlpNmk67zxHS4gGWL8zhgOb7BEvq2QR1A+qwkNO6n0Nv9ggDWXxJ0t5GpKyJb3+NHIoQQl4SsUbsYd0O5XVBbfu5Q++JuKMfdUN5tDRq6r0tbtIyb3IdeJBCvVUJjGXk2IQ1AYz5by+2nsQOTx6FRmDiwdb1dSANQmceH+4zgM4opsQBxJEf6QWMpL/diRBsfq0XFKfa8YxPSAFSRW1BhX0/QNGKDFZgqt7F6m2OHqsj9uIJWPBmdOL6HrQshxKUjQe2C3L/7xvpzmybCusN7xGtP4W6osE6LK/eXWMt1ePvZjbgdN5AN3fPFWcO8u5GoPcB0tBJnA872n+w/a7xUQDM1JY6haFZ8rAHwxF8DEHLOus/m6mFKaKvloLOLzjh8DvFCBTTV7HD+i8D2OuoB9TBtL3oghBCXhkx9uyDH3d1H73kMd0N5t9evPHd+ymU/tllHzc1Jt9GiS2RIc0O3spZ17t5oNzkP3v7Qp7pNJllTFkL84siI2gUNaWpgxGtP2R1zDF7z6Loc9db8bsHu+KqWY13n14rJBKoRWgKdnPW+QmH32XCyFVATFKt0Wlv8cD+ggdp9NnWPDCeyN106A3gEMCrIyTkPBW62n6tP0gp4B01E5ayuSQH4A/VHy3rTAyGEuCQkqF2Uu6GcoOceQF240TplPaSpAXXhRoKee8AazpZXstSFG+0C21nZnivk2zpg+HhmJtqHrypiFlMj7IO6tuBralEQNmU2SY5ZrU3j5kglNFRRvM9c966DRvAbT/qM0B73aGtVHeBH7B0J9uGrDCfzhnDselSzGf0RUGgTmZfo2KFQ0n8bjooGDuw422tgQgjhOn419jc3/qu58fgladx/mBetxjZaf/hxQJYf1Cbdz7o541FjpFZfyr4GU+frVirqjwxBEwT6l+eyaru5uN3rWfrdNq9nBaA6U80HK58kt7KzbmUCC5+Zhc4LWmvKKCk/jgkF/qPG4F//Lllrqklf9gQpIT9Qsn4+2dsB4shaM5tY22s6X7dSNdWhCA6wf4+6c7e5RmGi+dtSSmxezwr06L6bXQghLga1jy+9zdzLR1wV+kTbDxduLfJcVEp3TKYOTB2Ou4EGRvlB7fsv2XrYg/DQIDShWrShGoKULXy1aR1br5xIbAAc3f0xxd+bi5/4+gv2nfZBM0qDVmsurxl+Oc0Hd5L3/17g3Uqbuk2HKd55DM9rggm+6hpGh2nQhobge9kp9u38lF2VEDXl3xit7qC2dDM7vgeoYcc/a/AM0xB89TWM1mrQjryS02XvsbpISfyE4XC0lE07asxtNO7ns/2nGRYSivaaUMK0GrQhw7n8VBXF76zj6U0S0kKIi8/9SiW9zVwZUf+M8sJFJM4n594oTLvXkvli6aXujRBCnFVfRtSyRi0GPF3U1agwUf+dhLQQYvCRoBYDmzaNtHGeYDqM/tNL3RkhhOh/8h61GCDSWL5uHKrv6/i2+jgmzK946SICUF1m5MA7OeRfmq0WQghxQUlQiwGiGsOxccSHRJE0uvPQTyaaj5Txwfs55O44dUl7J4QQF4oEtRggdpKzdCc5l7obQghxkckatRBCCOHCJKiFEEIIFyZBLYQQQrgwCWohhBDChUlQCyGEEC5MgloIIYRwYRLUQgghhAuToBZCCCFcmAS1EEII4cIkqIUQQggXJkEthBBCuDAJaiGEEMKFSVALIYQQLkyCWgghhHBh8mcuXVyHtx8tukSak24DYEhTA+6Gcobqi3A3lDst26JLtB5Tb81n6J4vLkjfIu94mMwpbpRkriC3vyu/YTbZvw+l5n8fIXt7f1d+AV2Mfg/UZyOE6BMJahfWpong6D2P2R3r8PajxXsybZoIfPPXWcP66D2P0aaJ6FbH8dRMmqekEvTcA/3eP/XIEPyVDf1eLwDDAwj0UlF/YWq/cC5GvwfqsxFC9IlMfbuYNk0EHd5+3ULaMpK26PD243hqJh3eft1CekiTfXhaygghhBh4fjX2Nzf+q7nx+CVp3H+YF63GNlp/+HFAlr8QWsZNZuieL6j504t0ePsBMHTPF/jmrwO6prcB3A0VtGnC7abFbUfZLeMmczw103qud6PqUFLmZnBzdABqd/MR08kqNr+8glyv+eTMiULleMnhAtIW58GMx8mb5of+ldepv2EmyRpPOF3G6vteoBhP4u+eR1psMP4eCvN1xjr07+ew6qMqII1VG5LRONZtvR5ASezMB0mPD8VfaT7d2lBF8RvPk1NqtLlISWTKLDKSowj0UnSWq6Dg1Tp0jyahOVxA2uIGlqxLJ1JRRV7GCvIdmg28ewXZN/hy4L0HWbLRyNn1oN/K8WRk/YH4UX6oLgN+MlJ/cCe52bmU2FQddtP9zJne1WdMpziwZR1L3orqwbNx1Pm8f9P1rJprisj/3Iu0u6NAv56M7J1dxX3iyLjvVuKv8UNlaf50A4Ydb7NqQymt53gCQojzU/v40tvMlalvFzOkqYGWcZOtIe1uKLeGtCWQLWxDGrALaTAHfIsuwW6U7riu7ZyS1McXkKaF+n1FFBwxgUcIumg/gryA6lIKthwnMCKB2KAf2LdlN7UADRV2tQT+fhb+FblkLt1Js+XgjAeZd0MIrTVlFO44jsk9AN3EcHR3zCOreT7Z2yvYvkXBgaAJJEdcSW1JEftOAj9WY+jsW1LWSjJ1nuY6ijvriAknef7jqLIfYbXe3FTYjIdZOC0Exek69NsqqG9T4B8xntSHtJisvSzkw69vITI2GN3vIH+T7R2EkxodAMYKis8Z0gDn6bcygYXPzELnZaRWX0RxgwnFyOtIiEwi6yklq7LWowdUv1vM0ttD4VgFhSV1mFCi0UXhP9Lr/G04+XdMylpGps4TU2MVxcXVtKJEMyGOjDvBBLTbFtemseqRZDTuJpq/3UlBtRHcfYnURRE29X6y/V4nK7tIwlqIi0yC2gV1qH2tP7sbzOHXnHRbt6B25CyEhzQ1YBmCDWnu6XpyCjFaBdQUsvDp3K7/MSs9UQMYi8jbUER8VhyxQU0YNuQ62UymxPvkh2S+stP+f+xnjrPvrVyWf1RlPaQ68jDr7ggncmICbC/igw1lMCOU5Igh1OtzybHdMDVpNuk6T1q/ep15z9qExtZ0shclEXvLzazWfwhBaWRcH4LiZBnrFrxAoTVn8zqDXmGtUv/ebmpjk9CMTUW1Kb+rTl0SkX7QXFJAwXmfWdk5+x0/Jw2dlxH9KwtYta0r9LfOXMHSqeNJ/R3oN8Gt40NRUEfB0v8hx1JsgxK1D4Dx3M/GUeezMh0uYNniPA5Yjm8IJX3FAlKCbYM6gPRZSWjcT6F/ZZFdH6GzvO42MnVFZOvP+zCEEP1I1qhdjLuh3C6oLT93qH1xN5TjbijvtgYN3delLVrGTe5DLxpoNQLDQ0mLUHYdNp6i+XwDSxv1hzZ3H329tdYupAFaPzpMDaDyHnneOlMSw1HRQMlbDiO7ynz2HQPFcC3xgGryGDQKEwe2rrcJaQAjhS93zgBY1OSz5zAoQsK52eZ246eEo6aOkvfKzn+z55TMlHAlHCtlwzb7B3hgYwX1KAgMjQOgodUI+BJ2W7jN0oKR5sZePPhO8bFaVJxizzs2IQ1AFbkFFfbPL2gascEKTJXbWL3Nsa0qcj+uoBVPRieO73U/hBA/j4yoXZD7d99YA7ZNE2Hd4Q2WkbV545hyfwnGa2MB89p1c9JtqAs3Wj9b1qfBPA1+tjDvrpC8LRPR3BJK8qNriG+oomTLB+RtLuuawj4vI/XVzsJFSWBiEqkTxxPo402Qz5XgpkDhpKQzXkMVgB9Jf84hyXkJrgYY7gc0U1PipA9Gk/2UL0be3VPFtN+HortVSd4bRiCJKaOVcLiIvJoedu6s1KjcAfcEsjckOC8yLATYScHGQuJDbiZs6sPkxDdwYHch+RsL0Df2vtWrhymhrYKDzkbAZxw+h3ihAppqdjif2t5eR/2cKDTDtEBp7zsjhOgzCWoX5Li7++g9j+FuKO/2+pXnzk+57Mc2a6g3J91Giy6RIc0N3cpagr6nDmxcQcbWKFLvvJUp14WSNGM+SdNLWffoWocR6jk4hgGhpC9bQIpGAcYGao81sG9XNfWnfdHdFIV/TzvXVkfJtoqz/NLQwH7oHI12YOphwLVu3MG3U0OJjEol8I1caqeNZ7TSxIE9H/TbmqypppTC8pPOT1rW9yvzWXLfZ+h+N5O0yeGEJaaxMH46Ja8tIrvbSLcnjZpkTVmIAU6C2gUNaWpgxGtP2b1S5Ri8I157yjwN3txg3SgG5mC3bESz1NXbkLZqLCN/TRn5eBI/ZzFzJo0nfU4chba7hHtjUgpJGkX39WVlOtk39awKY7sJ3IfQujWXnHOMdGPPdAC+BCYCmx1OBim771i3bioLJzlISWusFoWxsgebyHqiFZMJFAojBRty7afdnTqFftNa9JtAPXE2y++NI/aO2cRvO9vO7rM4A3gEMCoICh2flYcCN2zWqKtP0gp4B01ERX73cJ8UgD9Qf/TnLgMIIXpL1qhdlLuhnKDnHkBduNE6ZT2kqQF14UaCnnvAOuq2BLG6cKPdSNxZ2Z7z7Ny8ZHGK4r9/TT3g5uHrUNYb/9geVnuVeXq1+Zj9az5h/3EdgU4vUKK+yv5Iwb7DmPAj9o4EJ2HbpWR/La0oGD05nTC7M56kzBzvdPSu336QZgLQTU9Dp1XQ/HVPNpH1pN+F7Ks2wfDxzExUnu0iANQ+nnafm3fkoj8GuKsc+tz92TjaWlUHzp6VMpzMG8LtlxtqNqM/AgptIvO69TGU9N+a9wYc2FGBEOLikhG1C7OErWXd+Xzl+s90Fj6fgOpgGfpqI6AgMDqOQIzsKym0ltIfawBCGJd6PxlhRjQ+Rpa8mHf2aourqL0phMApK1nusRvDaVCNiiN+aCvNYN5RbvGdeYSniV9MpqIa1Uglu55eT/HGt9g8bgEp0bNY92IiJburzaHvEUCkNoT20rksfAP4LJfCxCdI0SSx9MWQznJKNBPGo2k5Qj0h3cNan0/JkfEkT4zDRB2FfdlEdpZ+571RiG5RMrp7n2ddYiklnev3qpHhhF3TTknmk+QCN//pBZKurEKvN9+XYuR1JARBa/nurl8anLbxAVcve4KUkB8oWT+f7O1Q+7cPKPn1bGKjZ7H6z+MpKT+OqfN1K1VTHa0E2HS8jpxXCghz7GNn+UAPE4bN662vvgkhLp7LR1wV+kTbD/0xvdd7KqU7JlMHpo5ui5kDovzg5UFwbAQRV4cSptWgDQ3B+0wNX+StJ3tL1xdXmr6u4fJrxxKpMZdxbyxj0/YDEPVv/LtWxdHdH1P8vU21p8owtGsYPSoYzTUatKEaPFt38uaqw4yYrsX7ZBXvFO43l/2+jNMBOsKvCWa0VkNQh4Etn+2lnibKdlbxk/81BF8dTFiYuR6tn4q2o6VsKdhLVSNAC2VbK/gxcBQaSzmND2e+/z9efaae0BSH9jBfc8Arkt9e64viyJe8lF/G6d4+urP1u3E/Ow6eYYQmmBDrc9UQcGUbR/cU8skeAycAz6tiiBwVTNho83mN5xkO/98/WP3iZxw9ZxuVjJjyb4xWd1Bbupkd3wPUsOOfNXiGaQi++hpGazVoR17J6bL3WF2kJH7CcDhayqYdnfPijfv5bP9phoWEor2ms48hw7n8VBXF76zj6U1VTm9ZCNFz7lcq6W3myjeT/YzyYoBSppO9LolAQwFpS+1nAFS3LWbd74MxnPebyAa4xPnk3BuFafdaMl+UXdxCXCzyzWRC9IBqeshZNkYFkBYTisLJN5GpNeEEnWtRvLWWfYZT/d3VC0YXdTUqTBz4TkJaCFcnQS1+WZQJzJsSisLZxihdKrEjnX8T2c1/fJiU4HPUa/me84FAm0baOE8wVaH/9FJ3RghxPhLUYpCKIyv7DoJaajEcrDNvzPILZVx4CGp3E/Xb37VujEp/YDEqYzuRMeGoT5exLqf7JrLcxRn9/ze3L7g0lq8bh+r7Or6tPo4J8+Y1XUQAqsuMHHgnh/xBPLsvxGAhQS0GqWq+q25ldKSWeE24+dBPJlpPVFH4j3xyt9iMpoeFkjQBOFlF/gsv9PwLXVxeNYZj44gPiSJpdOehn0w0Hynjg/dzyN0xcKbqhfglk81kP6O8EEII0Rt92UwmX3gihBBCuDAJaiGEEMKFSVALIYQQLkyCWgghhHBhEtRCCCGEC5OgFkIIIVyYBLUQQgjhwiSohRBCCBcmQS2EEEK4MAlqIYQQwoVJUAshhBAuTIJaCCGEcGES1EIIIYQLk6AWQgghXJj8PWoX1+HtR4sukeak2wAY0tSAu6Gcofoi3A3lTsu26BKtx9Rb8xm654sL0rfIOx4mc4obJZkryO3vym+YTfbvQ6n530fI3t7flQshxMAhQe3C2jQRHL3nMbtjHd5+tHhPpk0TgW/+OmtYH73nMdo0Ed3qOJ6aSfOUVIKee6Df+6ceGYK/sqHf6wVgeACBXirqL0ztQggxYMjUt4tp00TQ4e3XLaQtI2mLDm8/jqdm0uHt1y2khzTZh6eljBBCiIFHRtQupsPbD3dDOUczuoJ16J4v8M1fZz1vmdp2N1TQoku0hvSQpga7UXbLuMkcT800X6f262VPQkmZm8HN0QGo3c1HTCer2PzyCnK95pMzJwoVACGkbMghBeBwAWmL82DG4+RN80P/yuvU3zCTZI0nnC5j9X0vUIwn8XfPIy02GH8PhbliYx3693NY9VEVkMaqDcloOnuhm5ND3hxsrgdQEjvzQdLjQ/FXmsu1NlRR/Mbz5JQabe5BSWTKLDKSowj0UnSWq6Dg1Tp0jyahOVxA2uIGlqxLJ1JRRV7GCvIdnkLg3SvIvsGXA+89yJKNRrrrSRt5NsXDSc1IJ9nmudJ2itqvPuHlNQUc6NW/kRDil0CC2sUMaWqgZdxkOrzNwepuKLeGtGWd2qJNE253zDakwRzwLboEu1G647q2c0pSH19Amhbq9xVRcMQEHiHoov0I8gKqSynYcpzAiARig35g35bd1AI0VNjVEvj7WfhX5JK5dCfNloMzHmTeDSG01pRRuOM4JvcAdBPD0d0xj6zm+WRvr2D7FgUHgiaQHHEltSVF7DsJ/FiNobNvSVkrydR5muso7qwjJpzk+Y+jyn6E1XpzU2EzHmbhtBAUp+vQb6ugvk2Bf8R4Uh/SYrL2spAPv76FyNhgdL+D/E22dxBOanQAGCsodhrSPW3D8lgTyPrzLGJ9MPe9/DgmlGgmjCcsNo2lAWqWLc6TsBZC2JGgdkEdal/rz+4Gc/g1J93WLagdOQvhIU0NWIanQ5p7up6cQoxWATWFLHw6l1bLYaUnagBjEXkbiojPiiM2qAnDhlwnm8mUeJ/8kMxXdnZdD3DmOPveymX5R1XWQ6ojD7PujnAiJybA9iI+2FAGM0JJjhhCvT6XHNvNZJNmk67zpPWr15n3bFFX3VvTyV6UROwtN7Na/yEEpZFxfQiKk2WsW/AChdaczesMeoW1Sv17u6mNTUIzNhXVpvyuOnVJRPpBc0kBBc4eUy/aAIifk0asjwnD5mdY+EbX/bPB8stHEjNv++AsI3chxC+VrFG7GHdDuV1QW37uUPvibijH3VDebQ0auq9LW7SMm9yHXjTQagSGh5IWoew6bDxFcy8ypP7QZvuQBnhrrV1IA7R+dNcl0iAAAAZPSURBVJgaQOU98rx1piSGo6KBkreK7OuuzGffMVAM1xIPqCaPQaMwcWDrepsABTBS+HLnDIBFTT57DoMiJJybbW43fko4auooea/MaV961QbJTAlXQmMZeW/Y37+5/A4MKAiLTjnvMxBC/LLIiNoFuX/3jTVg2zQR1h3eYBlZm9eklftLMF4bC5jXrpuTbkNduNH62bI+DeZp8LOFeXeF5G2ZiOaWUJIfXUN8QxUlWz4gb3NZ1xT2eRmpr3a+phuYmETqxPH8/3buLrapOozj+FflkNmxUepAoNPadLCQjGmZYUM2DCfaQcgSgQtQ54V4AYkaDBcEM0UjoEDigACJI3FGUxIWsxHjDVNTEoFACWNm4hswRw3bZBUoL61I8eWibKxdB+0wobDf527tf//n7Oq353+ec+y2MeTbHoSRBkaSlcmMHmUAYzE/qMdMvoLHAB4eC4Q47U9yDZEoVxOudffRduY858I930LDzghgMrvQAr/to+F08mtxp1XDSnYWRH89SWuyzSIBQpcAWx6lgD95SREZhhTUGShxuvv3V94iq+PHAY9f5R76mvv/utIX6iFzIZfdsxgRCg5Y2xv0qTreuI4le4tZ8MJ8Zk91Yb74BubcFure3J7QPd7E34kfuKh+byVVTgMiQTrPBDl2OEDPpTzc84oZl+rFXenG/+1Pg/zTEOQHuD7odo3oudS2DDce5BePi6LiBdh3eumcU0KhJcrxo18OPBWIk3oNEZGhUFBnoBHng4z/eG3cI1WJwTv+47WxY/BQsG9QDGLB3juI1rtXuiHd51wbTdvaaCKX8mU1LJtZQvWyMny1h4a238wqTKcx8P6ypZraealtEbkahawRhPd6qR+k0wUo/fsakId9FrAn4ct8y/Ug7693qGwKlfkWwqUFGJGTgw6RAUTTqhEifAWM8QW4aR7YVVscWHMgejKgblpE4ugedYbK6viR/A+XY/U19h1ZjzgfxOprJP/D5X1dd28QW32NcZ14srWpy8Vq6//zRfZ/9j09wMicvIS1YxhXmuK2j4wmGwidaYnrUic/PxV70l+wYH0k/pPmY78RZSyliyuShO0N/h86CWNQ+HQ1k+O+yaXqpZKk3XvrgROEmIB77iLcBQah7wcZIhtSjWYOn4yArZhFL7oG/J3mshk4idLxne8mFUVkOFJHncF6w7b3vvOt1v1/5rJqUwXZJ9poDUQAA/vjZdiJcMx/I0hazwQBB9MWvMqSyRGctghvb2kYdFf2t9M5z4F99vusyTlCxyXInlRG+agwIYhNlPc6dYEw4CyvYakRIHuihcMbdrC/cRd7pq2k6vGXqdsyC/+RQCz0cyZQVODgastrrNoJfOPFN+tdqpwmq7c4rq+LPQrlvNxFD46BYd3ahL+rhMoZZUTpxpcwRGZf/A4b5jkI+3ewdNuhtGs0b23AvfFl3HNqqC9qw9//8SybQaj1E9Z/oYlvEYmnjlqSCHC86xpjJpVR6TGp9FRQmNWF79NNrNlzI0jCO700/XIRY2IJlZ4K7Fk3v5vLaS8f7WqjM5rL5BkmlR6TIqOF+rVHOZ+49sAOvAe7Cee4MD0mpbbo9XvS7XjXbabBH/uu3BPbp9LtwDjXwt6+c+NuvKs34u2/7plirMF9bF338yD3nbtpONxO1DAwun6i+SZH60OqEdnH+pXbaTrWDQ8XY3pMKj1lOB/4g9Yvt7Oidt8t7oeLyHB03xNPPftv6Nwfd6T4uIdGE45cIfznX3flerlLWaqprTOxdzSzaHX8CUD2whrqnnuUjkHfRHb7NURk+LLa8kg3c9VRy7CTPTd2JN3ze+Lz0RNYNN11yyGy26shIpIeBbUML5YKXp/twiDI8YPxrzzFvYDSidxyiOy2aoiIpEnDZHKPKmNF7WLyL3fScaKbMGCMdTFtigNrVpSeA7v73glevbyG7MhViqZPwXqpjbr6VLvg1GuIiAyVglruUQFOBcIUFhVQ7pwS++ifKOGz7fg+b8L7Vb9O9yEX5pPAhXaaNm9O/YUu6dQQERkiDZPdxnoREZF0aJhMRETkHqOgFhERyWAKahERkQymYbJ+es5euNOXICIiEkcdtYiISAZTUIuIiGQwBbWIiEgGU1CLiIhkMAW1iIhIBlNQi4iIZDAFtYiISAb7DwyWglF9tvjyAAAAAElFTkSuQmCC;" vertex="1" parent="21">
                    <mxGeometry y="450" width="450" height="402.24" as="geometry"/>
                </mxCell>
                <mxCell id="19" value="pkg/registry/apps/deployment/storage/storage.go" style="shape=note;whiteSpace=wrap;html=1;backgroundOutline=1;fontColor=#000000;darkOpacity=0.05;fillColor=#FFF9B2;strokeColor=none;fillStyle=solid;direction=west;gradientDirection=north;gradientColor=#FFF2A1;shadow=1;size=20;pointerEvents=1;fontSize=20;" vertex="1" parent="21">
                    <mxGeometry y="400" width="450" height="40" as="geometry"/>
                </mxCell>
                <mxCell id="22" value="&lt;div style=&quot;orphans: 4;&quot;&gt;&lt;font color=&quot;#333333&quot;&gt;&lt;span style=&quot;background-color: rgb(255, 255, 255);&quot;&gt;对 Request 进行响应的业务逻辑部分 - Store&lt;/span&gt;&lt;/font&gt;&lt;/div&gt;" style="text;whiteSpace=wrap;html=1;fontSize=40;fontFamily=Lucida Console;fontStyle=1;shadow=0;rounded=0;" vertex="1" parent="1">
                    <mxGeometry x="-23.51" y="110" width="953.51" height="59" as="geometry"/>
                </mxCell>
                <mxCell id="23" value="" style="edgeStyle=none;orthogonalLoop=1;jettySize=auto;html=1;rounded=0;fontColor=#FF3333;endArrow=open;sourcePerimeterSpacing=8;targetPerimeterSpacing=8;curved=1;shape=link;" edge="1" parent="1">
                    <mxGeometry width="140" relative="1" as="geometry">
                        <mxPoint x="-23.510000000000005" y="206" as="sourcePoint"/>
                        <mxPoint x="1410" y="206" as="targetPoint"/>
                        <Array as="points"/>
                    </mxGeometry>
                </mxCell>
            </root>
        </mxGraphModel>
    </diagram>
</mxfile>